<mxfile host="app.diagrams.net" modified="2022-07-13T10:22:23.056Z" agent="5.0 (Windows NT 10.0; Win64; x64) AppleWebKit/537.36 (KHTML, like Gecko) Chrome/103.0.5060.114 Safari/537.36" etag="xRnjtas3NWM504eU3Yh0" version="20.0.4" type="github">
  <diagram id="VJkxFRqjTDhTtFvUOgWB" name="Page-1">
    <mxGraphModel dx="2607" dy="1573" grid="1" gridSize="10" guides="1" tooltips="1" connect="1" arrows="1" fold="1" page="1" pageScale="1" pageWidth="2336" pageHeight="1654" background="#283618" math="0" shadow="0">
      <root>
        <mxCell id="0" />
        <mxCell id="1" parent="0" />
        <mxCell id="uIabnYWw43FszIrwxXQ7-28" value="&lt;b&gt;&lt;font style=&quot;font-size: 31px;&quot;&gt;Secondary&lt;br&gt;logistics&lt;br&gt;&lt;/font&gt;&lt;/b&gt;" style="rounded=0;whiteSpace=wrap;html=1;sketch=0;fillStyle=cross-hatch;fontSize=26;fontColor=#FFFF00;strokeColor=#DDA15E;fillColor=#009900;" vertex="1" parent="1">
          <mxGeometry x="393" y="569" width="230" height="480" as="geometry" />
        </mxCell>
        <mxCell id="uIabnYWw43FszIrwxXQ7-25" style="edgeStyle=orthogonalEdgeStyle;curved=0;rounded=1;sketch=0;orthogonalLoop=1;jettySize=auto;html=1;exitX=0;exitY=0.5;exitDx=0;exitDy=0;entryX=0;entryY=0.5;entryDx=0;entryDy=0;fontColor=#FEFAE0;strokeColor=#BC6C25;strokeWidth=7;fillColor=#BC6C25;" edge="1" parent="1" source="uIabnYWw43FszIrwxXQ7-2" target="uIabnYWw43FszIrwxXQ7-1">
          <mxGeometry relative="1" as="geometry">
            <Array as="points">
              <mxPoint x="783" y="707" />
              <mxPoint x="783" y="607" />
            </Array>
          </mxGeometry>
        </mxCell>
        <mxCell id="uIabnYWw43FszIrwxXQ7-2" value="&lt;font color=&quot;#ffffff&quot;&gt;&lt;span style=&quot;font-size: 26px;&quot;&gt;&lt;b style=&quot;&quot;&gt;Chassis&lt;/b&gt;&lt;/span&gt;&lt;b style=&quot;font-size: 26px;&quot;&gt;&amp;nbsp;Trim&lt;/b&gt;&lt;/font&gt;" style="rounded=0;whiteSpace=wrap;html=1;sketch=0;fontColor=#FEFAE0;strokeColor=#DDA15E;fillColor=#BC6C25;" vertex="1" parent="1">
          <mxGeometry x="841" y="677" width="542" height="60" as="geometry" />
        </mxCell>
        <mxCell id="uIabnYWw43FszIrwxXQ7-55" style="edgeStyle=orthogonalEdgeStyle;curved=0;rounded=1;sketch=0;orthogonalLoop=1;jettySize=auto;html=1;exitX=0.5;exitY=0;exitDx=0;exitDy=0;entryX=0;entryY=0.5;entryDx=0;entryDy=0;labelBackgroundColor=none;fontSize=31;fontColor=#FFFF00;strokeColor=#FFFF00;strokeWidth=6;fillColor=#BC6C25;dashed=1;" edge="1" parent="1" source="uIabnYWw43FszIrwxXQ7-3" target="uIabnYWw43FszIrwxXQ7-53">
          <mxGeometry relative="1" as="geometry">
            <Array as="points">
              <mxPoint x="1112" y="730" />
              <mxPoint x="740" y="730" />
              <mxPoint x="740" y="540" />
              <mxPoint x="550" y="540" />
              <mxPoint x="550" y="462" />
            </Array>
          </mxGeometry>
        </mxCell>
        <mxCell id="uIabnYWw43FszIrwxXQ7-3" value="&lt;b&gt;&lt;font color=&quot;#ffffff&quot; style=&quot;font-size: 26px;&quot;&gt;TRIM A&lt;/font&gt;&lt;/b&gt;" style="rounded=0;whiteSpace=wrap;html=1;sketch=0;fontColor=#FEFAE0;strokeColor=#DDA15E;fillColor=#BC6C25;" vertex="1" parent="1">
          <mxGeometry x="841" y="777" width="542" height="60" as="geometry" />
        </mxCell>
        <mxCell id="uIabnYWw43FszIrwxXQ7-26" style="edgeStyle=orthogonalEdgeStyle;curved=0;rounded=1;sketch=0;orthogonalLoop=1;jettySize=auto;html=1;exitX=0;exitY=0.5;exitDx=0;exitDy=0;entryX=0;entryY=0.5;entryDx=0;entryDy=0;fontColor=#FEFAE0;strokeColor=#BC6C25;strokeWidth=7;fillColor=#BC6C25;" edge="1" parent="1" source="uIabnYWw43FszIrwxXQ7-4" target="uIabnYWw43FszIrwxXQ7-5">
          <mxGeometry relative="1" as="geometry">
            <Array as="points">
              <mxPoint x="783" y="907" />
              <mxPoint x="783" y="1005" />
            </Array>
          </mxGeometry>
        </mxCell>
        <mxCell id="uIabnYWw43FszIrwxXQ7-4" value="&lt;b&gt;&lt;font color=&quot;#ffffff&quot; style=&quot;font-size: 26px;&quot;&gt;TRIM B&lt;/font&gt;&lt;/b&gt;" style="rounded=0;whiteSpace=wrap;html=1;sketch=0;fontColor=#FEFAE0;strokeColor=#DDA15E;fillColor=#BC6C25;" vertex="1" parent="1">
          <mxGeometry x="841" y="877" width="542" height="60" as="geometry" />
        </mxCell>
        <mxCell id="uIabnYWw43FszIrwxXQ7-24" style="edgeStyle=orthogonalEdgeStyle;curved=0;rounded=1;sketch=0;orthogonalLoop=1;jettySize=auto;html=1;exitX=1;exitY=0.5;exitDx=0;exitDy=0;entryX=1;entryY=0.5;entryDx=0;entryDy=0;fontColor=#FEFAE0;strokeColor=#BC6C25;fillColor=#BC6C25;strokeWidth=7;" edge="1" parent="1" source="uIabnYWw43FszIrwxXQ7-5" target="uIabnYWw43FszIrwxXQ7-2">
          <mxGeometry relative="1" as="geometry">
            <Array as="points">
              <mxPoint x="1523" y="1005" />
              <mxPoint x="1523" y="707" />
            </Array>
          </mxGeometry>
        </mxCell>
        <mxCell id="uIabnYWw43FszIrwxXQ7-5" value="&lt;font color=&quot;#ffffff&quot; style=&quot;font-size: 26px;&quot;&gt;&lt;b style=&quot;&quot;&gt;Underfloor&lt;/b&gt;&lt;/font&gt;" style="rounded=0;whiteSpace=wrap;html=1;sketch=0;fontColor=#FEFAE0;strokeColor=#DDA15E;fillColor=#BC6C25;" vertex="1" parent="1">
          <mxGeometry x="841" y="975" width="542" height="60" as="geometry" />
        </mxCell>
        <mxCell id="uIabnYWw43FszIrwxXQ7-9" value="" style="group" vertex="1" connectable="0" parent="1">
          <mxGeometry x="1383" y="777" width="70" height="160" as="geometry" />
        </mxCell>
        <mxCell id="uIabnYWw43FszIrwxXQ7-8" value="" style="rounded=0;whiteSpace=wrap;html=1;sketch=0;fillStyle=cross-hatch;fontColor=#FEFAE0;strokeColor=#DDA15E;fillColor=#BC6C25;" vertex="1" parent="uIabnYWw43FszIrwxXQ7-9">
          <mxGeometry width="70" height="160" as="geometry" />
        </mxCell>
        <mxCell id="uIabnYWw43FszIrwxXQ7-6" value="" style="rounded=0;whiteSpace=wrap;html=1;sketch=1;fontColor=#FEFAE0;strokeColor=#DDA15E;fillColor=#80FF00;fillStyle=cross-hatch;" vertex="1" parent="uIabnYWw43FszIrwxXQ7-9">
          <mxGeometry width="70" height="160" as="geometry" />
        </mxCell>
        <mxCell id="uIabnYWw43FszIrwxXQ7-10" value="" style="group" vertex="1" connectable="0" parent="1">
          <mxGeometry x="841" y="577" width="592" height="74" as="geometry" />
        </mxCell>
        <mxCell id="uIabnYWw43FszIrwxXQ7-1" value="&lt;b&gt;&lt;font color=&quot;#ffffff&quot; style=&quot;font-size: 26px;&quot;&gt;Prefinal&lt;/font&gt;&lt;/b&gt;" style="rounded=0;whiteSpace=wrap;html=1;sketch=0;fontColor=#FEFAE0;strokeColor=none;fillColor=#BC6C25;" vertex="1" parent="uIabnYWw43FszIrwxXQ7-10">
          <mxGeometry width="542" height="60" as="geometry" />
        </mxCell>
        <mxCell id="uIabnYWw43FszIrwxXQ7-7" value="" style="triangle;whiteSpace=wrap;html=1;rounded=0;sketch=0;fillStyle=cross-hatch;fontColor=#FEFAE0;strokeColor=none;fillColor=#BC6C25;" vertex="1" parent="uIabnYWw43FszIrwxXQ7-10">
          <mxGeometry x="542" width="50" height="60" as="geometry" />
        </mxCell>
        <mxCell id="uIabnYWw43FszIrwxXQ7-12" value="" style="shape=image;verticalLabelPosition=bottom;labelBackgroundColor=default;verticalAlign=top;aspect=fixed;imageAspect=0;image=data:image/png,iVBORw0KGgoAAAANSUhEUgAAAIAAAACAEAYAAACTrr2IAAAABGdBTUEAALGPC/xhBQAAACBjSFJNAAB6JgAAgIQAAPoAAACA6AAAdTAAAOpgAAA6mAAAF3CculE8AAAABmJLR0QAAAAAAAD5Q7t/AAAACXBIWXMAAABgAAAAYADwa0LPAAAAB3RJTUUH5gcNCRU4XOUz9wAADq5JREFUeNrt3XuQVOWZx/Hvc5gBvIAzPcwUBJTrSFwsLwECUk5FkYSAQnZLFwIit1JRWDFeACNKJaBoKKHQBRET5BYohIVVES+r7G4EBFFUAqjFYJAFCbfuAQrkMkw/+8fpYWDCMN1ze7v7PJ9/Ts3Q3fz6dJ9fv+dMn/cIplZoNLwKWrRA5E7o1w/0t9C9O/AoXH89yEPQpAnoVGjY0HVed2QYnDgBugjCYeBx+PJLoC+sXg36CixdKtJkJezd6zptuhHXAdKFRouehJYtEW0AEyeCtoGBA4HekJHhOl8KWwjFxSDvw6JFKI1hwgTxQq/D7t2uw6U6K4BqUj1UCKNGoV5f+MMfEF0Ll13mOlf6kmvg2DGUSfD44+KFRsDs2a5TpSorgASpqkK9elB0P8yZA/o8DBniOldgKX+HP/0JCXWAESNERCAadR0rVXiuA6QKf8MXQSPvwKxZtuEnCaEZ3HsvFPWGOXP818mz93WcbEXFLdINZs5E6Ar33ec6jSlP/wxDh0LRSnjpJddpUoXtAlRCo4f+C+65B5GOsGCB6zwmXiJw990ioRAsXuw6TbKyEUAFVMMNoXlzRIrhxRdd5zGJ0kKYOVOjkf5w5ZWu0yQrK4CKzYBXXwW6Qna26zAmYe0gKwvR4zBzpuswycp2AcrR6KH/gM6dEbkVNm50ncfUlGgUOnUSyc2FTZtcp0kWNgIoT7yxMG6c6ximpnkbYcwY1ymSjY0AYlQPj4fWraGkD+zYAeTbn5PSygYoKUG9ddC2rXjZk2HXLtehXLM3eCkt+R769ME2/HTVFerVQ0qGwR13uA6TLOyNXkq4GXr2dB3D1DZ5xF7nMoHfBdCoRqFBA6SoACIR0Lfg0ktd5zK1ROVmOH4csrdBdrZ44vknGwWTjQCkqB20a2cbfkCUnqwl4V9Bmzau47hmBQDToWVL1yFMHVNZCq1auY7hmhUALIJGjVyHMHVMpANccYXrGK5ZAagch8xM1zFMHVP5J6hf33UM16wAjAkwKwBjAswKwJgAswIwJsCsAIwJMCsAYwLM5qtPG9IXfvgB9D44cAC4NjZ99g1w7BhIFzh2DKE/HD+O6nA4ffofH0aehcxMlI/g8stBP/GXDPG/Ms1ACIVAJkNurn2DMrVZASSLs99R115QWIjIy7BjB8o6/2d9DwoLUe8N/3TlMw1h3z6k5CnYu1ek6Tr//qyr5H8qnQxjbJzJyr9HFp0XO3rgQ78gpBX86EdQrx3k5SHaGdq2RWUZtG+P8K9w9dWgS6F9e+A1yM8HJkGDBq5Xf1BZAdS++RAOo7SHjRsReQg+/RT4DDZuRHU9bN4sXuhr2LMH+Lrc/TtW8vhOz2wTL6+/P8IA2L79/OXatRfI3wlKT8LKzITwr+D66xGmQZcu4C2Gn/4UeMf/WRf6xUGOP9GnqUlWANVXD44eBRkBq1ejdIf334czWbB6tXh5j8YmGCkv5Dq4S+efhffZZ8DK2JJz5/BTPbgUmjUD70bo1QvkTn+pf4EePSid+8+YqtBo0R0waJBqOOxf/iPu5U545BH/k8yu/VfXSte7auQGeOyxhF+/2Ovu+nm4Zn8FqDLZBE2a+J9kZ864ThM0ZetdW0Jenus8qcoKoKqUEXDbba5jBJ5Kw9hl100VWAFUlegC6NRJtUhtH7TunV3vooPhxhtd50lVVgBV508yqQyFggLXYYInegnceiulr4OpEiuA6hL9xnYFXJCltt6rzwqg2nSmvRGduNv2/avPCqD6GkOHDqoHXoemTV2HSXeqB5/xvxegm+DHP3adJ9VZAVRf7BtqGTmxfVJTmzRjQ2zEZd8MrAFWADVGO9uuQB0Q/S7Bof/TcOqU69jJygqgYrGv+MbtP60A6oK+luB6HgFvvuk6dbKyAqiYwLJlCdy+D7RqVXaRUVOTNHrgdf8CLrSFq66K4y6rIBJBvfGwcqXr/MnKCqBCUhK7jvwfYfPmuO+m0VdsJFAbMg4ntl5lKyxaBNF5tgtQMSuAyvWH+fPjvrXoZCuA2qB3JrZevR0wd67r1MnOCqAyWrzd/yRhYXwXkZTN0L27qqodpa6+s+tR+C3cckscd9kJW7eKZK2AL75wnT/ZWQFUQrymPf0ptmQXrFpV+T10EuTloUURuPZa1/lTnh5eAtddBzzvT0FWqf0wZ47r2KnCCiBu0RYwb17cNxfdYLsCNUB0WJzr0R+haf1msRGbiYMVQLw05xF/BCD9YN++OO4xy76qWhN0RnwFIOvh7bfFa/QTOHjQdepUYQUQp7MTUKjOgMWL47jHu3DLLWVz35lEnDPT0l1w882V30Ea2kG/xFkBJErkdnjttcpvqAegUSMk8i50rGxiT1OeFA2ITQ5aAo0bX+SGI2H/fsiaC++95zp2qrECSJBI6G+wbRsqI8smsbyoaXYsoCr0prjWm2oBLFx4/iSjJl5WAFUl8r/xDTmlqxVAlayNc99/ACxY4DpsqrICqCrVr/yjzTIMTpy4yA2LoFs31d1T4ZJLXMdOdqp774tdaSgPunat+JZSABs3ihfKgS1bXOdOVTaddRX5b7wjR1TDs8tONvn1ry9w09iVby4bBC+/rBq+1t9nNRcm+PMqaGVXDFob+7NsoK+vUF1WANWlDIZ58xB+qKAASm/4Zxg61HXc5KeV/Ls8BidPgjcdlixxnTbV2S5AdUmoIXzwAXAUdu92HSf96U3wxhsiWVlQVOQ6TaqzAqgmERGIRv0LhSxc6DpP2lNa2N/7a44VQE3Rkhdj+6Rh0MrGsSZh0hy+/x4J9YbVq12nSRdWADVEvNw1UFgIrIF1lV2i2yRuIsyb54+4Skpch0kXVgA1r6kNUWtDyRj48EPXKdKNFUDNmwbr17sOkXY0Y7x/rMXUJCsAYwLMCsCYALMCMCbArACMCTArAGMCzArAmACzAjAmwKwAjAkwKwBjAswKwJgAswlBKqSzYMAA1fAqyM1FNRN27gSvo7/UDfDdd/7ZaXv3lp0WbOpC2aXXwn2hWTPw+kHr1qi8Dq1bI9EesZ+vg4ICUJs27AKsACr2gP/GASgoKLvM39kzfWPz1UUmwOnTqpFhsGsXqn+EcBjhiOsnkF70W5g6VaORNnD55RAZ5V+GXeb5U4fFXhfR3ufdTfQe18mTmRVA9f0G6tf334D5+f6Gn5/vOlTaEX0ZOnVyHSPd2DEAYwLMCsCYALNdgArJDnjiCSj5wJ/00/sfaNUKZJ2/ZLS/1K9iPz8Y+/e+sd/7lwYzNWU6nD4Nsgd27QLmxQ7GjvOX8i/+kgGwcycanRI7aDsDbrgB0eXw6quun0SysQKoWD4cPSqS2wU+/9z/VekSgCnlbv82gGr4NrjmGv9XX33l+kmkDfVK4Oc/Fy97Lnz00Tn/8ny5Zam7ADQaPhQraHMBtgtgTIBZARgTYFYAxgSYFYAxAWYFYEyAWQEYE2BWAMYEmBWAMQFmBWBMgFkBGBNgVgDGBJgVgDEBZgVgTIBZARgTYFYAxgSYFYAxAWYFYEyAWQEYE2BWAMYEmBWAMQFmBWBSg+jj0K2b6xjpxgqghmhUo5CRAZIPAwe6zpN+VOG55zQaXgXvvOMvW7RwnSrVWQFUk2qkDXTogBR1h48/Bn0WnnrKda60JXSFXr0Q2sPWraqRh+D++8suFmoSYQWQoNJPetXIJzBuHOgvYdMm0OXQubPrfAGSDVdcAfo7mD0bIvvh3Xc1GukPV17pOlyqsAuDxOnsJz1F3WHu3HM2+EmusxkAMqFnT0SfhS1bVCN5MHYsqkBRketwycoKoELa0/+kD7eAJ5/0P+knTAAm+ZejTvTh5Dt47jmk5CpYvtz1s0t+3hh49FFgaoLHVM4fGQgbYpcS6+r6GSUjK4AKyS6YPBn0a/969FV+nDvh008h+79hwgQR8eDMGdfPLtmpFimMGgV6CfzsZ6DfQ/PmVXiortCypevnk6zsGECFqrvh8zScOoXSG4YPF882/ESIZAscPgzshREjXOdJV1YAtUanwO9/L15oLGzd6jpNqhIJhWDVKpAnYP5813nSjRVATVNGwxdfoDmXwgsvuI6TNpTn4eGHgfqwZ4/rOOnCCqDmTI9dv/4lGDLEH/IXF7sOlS7EC+XAkSMgxfDAA67zpAsrgJrzMUyc6L9Rt2xxHSZdnbNLMAMWLHCdJ9VZAVSX8ix8+SUa+gCmTHEdJzCUf4PRo7FdgmqxAqi66bEh/3gYPNiG/HXr7C6Bep3gwQdd50lV9j2AqsuHY8eAX8C0aRqNdHQdKJg0tpTH4ORJ0KnQsKHrVKnCCkD4q3+mWcJuh1AI0duhRw/XT8MkqOqve1qxXQCi+XDihOsUpq6VLIfjx12ncM0KQL2jcPCg6ximrnnf2OtuBQBkzIZvvnGdwtSZsD/0z/g/e92tABCv0U/g4MGzf84zaU7+HT7/XKTxeAiHXadxLfAFcJYwFd5803UMU9u0rb3OZawASqlEYufph+3ocFqKva7yEqxY4TpMsrACiCn7Cq/80t4gaekELFsmEvobbNvmOkyysEkUy9HowU/g6qsRb33sNN57IDPTdS5TZQuhuBiNLocOHcTLXQOFha5DJQsbAZQjXm4X2L4deNifEcikuHx45hnb8C/MRgAVKJtmOvJXWLIEaAH9+rnOZeKk8s+wYgWS/RHcdZeIiB3b+Uc2AqhA2RumeB8MHw68AWvXus5lKvUKrFmDnH4KBg+2Df/ibAQQJ/96AA0aIEXXwaxZoH+BYcNc5zJn9YNFi+Doh3DvvSKtxT85yFyMjQDi5J/ue+qUSGirPyKQ3/mTVcrTcOCA63zBIyNh/37gpL/B56yGQYNsw0+MjQCqSaOH+kCjRoh3EsaMAe0FI0cCQyAnx3W+tKFMhUOHEJ6FmTPRkqXwwgvi5fWPnZZtqsAKoIb5Bw/r1YNDQEEB6p2Evn2BTLjpJkRGQ5s2oDmQlQX8BurXd53boemxiVXC/jTgOh6+/RblKKxfj3h/h7fegqxbYe1af5++pMR16HTx/5jvzfetBQefAAAAJXRFWHRkYXRlOmNyZWF0ZQAyMDIyLTA3LTEzVDA5OjIxOjU2KzAwOjAw3Ze4wQAAACV0RVh0ZGF0ZTptb2RpZnkAMjAyMi0wNy0xM1QwOToyMTo1NiswMDowMKzKAH0AAAAodEVYdGRhdGU6dGltZXN0YW1wADIwMjItMDctMTNUMDk6MjE6NTYrMDA6MDD73yGiAAAAAElFTkSuQmCC;rotation=90;" vertex="1" parent="uIabnYWw43FszIrwxXQ7-10">
          <mxGeometry x="12" y="-14" width="88" height="88" as="geometry" />
        </mxCell>
        <mxCell id="uIabnYWw43FszIrwxXQ7-16" value="" style="shape=image;verticalLabelPosition=bottom;labelBackgroundColor=default;verticalAlign=top;aspect=fixed;imageAspect=0;image=data:image/png,iVBORw0KGgoAAAANSUhEUgAAAIAAAACAEAYAAACTrr2IAAAABGdBTUEAALGPC/xhBQAAACBjSFJNAAB6JgAAgIQAAPoAAACA6AAAdTAAAOpgAAA6mAAAF3CculE8AAAABmJLR0QAAAAAAAD5Q7t/AAAACXBIWXMAAABgAAAAYADwa0LPAAAAB3RJTUUH5gcNCRU4XOUz9wAADq5JREFUeNrt3XuQVOWZx/Hvc5gBvIAzPcwUBJTrSFwsLwECUk5FkYSAQnZLFwIit1JRWDFeACNKJaBoKKHQBRET5BYohIVVES+r7G4EBFFUAqjFYJAFCbfuAQrkMkw/+8fpYWDCMN1ze7v7PJ9/Ts3Q3fz6dJ9fv+dMn/cIplZoNLwKWrRA5E7o1w/0t9C9O/AoXH89yEPQpAnoVGjY0HVed2QYnDgBugjCYeBx+PJLoC+sXg36CixdKtJkJezd6zptuhHXAdKFRouehJYtEW0AEyeCtoGBA4HekJHhOl8KWwjFxSDvw6JFKI1hwgTxQq/D7t2uw6U6K4BqUj1UCKNGoV5f+MMfEF0Ll13mOlf6kmvg2DGUSfD44+KFRsDs2a5TpSorgASpqkK9elB0P8yZA/o8DBniOldgKX+HP/0JCXWAESNERCAadR0rVXiuA6QKf8MXQSPvwKxZtuEnCaEZ3HsvFPWGOXP818mz93WcbEXFLdINZs5E6Ar33ec6jSlP/wxDh0LRSnjpJddpUoXtAlRCo4f+C+65B5GOsGCB6zwmXiJw990ioRAsXuw6TbKyEUAFVMMNoXlzRIrhxRdd5zGJ0kKYOVOjkf5w5ZWu0yQrK4CKzYBXXwW6Qna26zAmYe0gKwvR4zBzpuswycp2AcrR6KH/gM6dEbkVNm50ncfUlGgUOnUSyc2FTZtcp0kWNgIoT7yxMG6c6ximpnkbYcwY1ymSjY0AYlQPj4fWraGkD+zYAeTbn5PSygYoKUG9ddC2rXjZk2HXLtehXLM3eCkt+R769ME2/HTVFerVQ0qGwR13uA6TLOyNXkq4GXr2dB3D1DZ5xF7nMoHfBdCoRqFBA6SoACIR0Lfg0ktd5zK1ROVmOH4csrdBdrZ44vknGwWTjQCkqB20a2cbfkCUnqwl4V9Bmzau47hmBQDToWVL1yFMHVNZCq1auY7hmhUALIJGjVyHMHVMpANccYXrGK5ZAagch8xM1zFMHVP5J6hf33UM16wAjAkwKwBjAswKwJgAswIwJsCsAIwJMCsAYwLM5qtPG9IXfvgB9D44cAC4NjZ99g1w7BhIFzh2DKE/HD+O6nA4ffofH0aehcxMlI/g8stBP/GXDPG/Ms1ACIVAJkNurn2DMrVZASSLs99R115QWIjIy7BjB8o6/2d9DwoLUe8N/3TlMw1h3z6k5CnYu1ek6Tr//qyr5H8qnQxjbJzJyr9HFp0XO3rgQ78gpBX86EdQrx3k5SHaGdq2RWUZtG+P8K9w9dWgS6F9e+A1yM8HJkGDBq5Xf1BZAdS++RAOo7SHjRsReQg+/RT4DDZuRHU9bN4sXuhr2LMH+Lrc/TtW8vhOz2wTL6+/P8IA2L79/OXatRfI3wlKT8LKzITwr+D66xGmQZcu4C2Gn/4UeMf/WRf6xUGOP9GnqUlWANVXD44eBRkBq1ejdIf334czWbB6tXh5j8YmGCkv5Dq4S+efhffZZ8DK2JJz5/BTPbgUmjUD70bo1QvkTn+pf4EePSid+8+YqtBo0R0waJBqOOxf/iPu5U545BH/k8yu/VfXSte7auQGeOyxhF+/2Ovu+nm4Zn8FqDLZBE2a+J9kZ864ThM0ZetdW0Jenus8qcoKoKqUEXDbba5jBJ5Kw9hl100VWAFUlegC6NRJtUhtH7TunV3vooPhxhtd50lVVgBV508yqQyFggLXYYInegnceiulr4OpEiuA6hL9xnYFXJCltt6rzwqg2nSmvRGduNv2/avPCqD6GkOHDqoHXoemTV2HSXeqB5/xvxegm+DHP3adJ9VZAVRf7BtqGTmxfVJTmzRjQ2zEZd8MrAFWADVGO9uuQB0Q/S7Bof/TcOqU69jJygqgYrGv+MbtP60A6oK+luB6HgFvvuk6dbKyAqiYwLJlCdy+D7RqVXaRUVOTNHrgdf8CLrSFq66K4y6rIBJBvfGwcqXr/MnKCqBCUhK7jvwfYfPmuO+m0VdsJFAbMg4ntl5lKyxaBNF5tgtQMSuAyvWH+fPjvrXoZCuA2qB3JrZevR0wd67r1MnOCqAyWrzd/yRhYXwXkZTN0L27qqodpa6+s+tR+C3cckscd9kJW7eKZK2AL75wnT/ZWQFUQrymPf0ptmQXrFpV+T10EuTloUURuPZa1/lTnh5eAtddBzzvT0FWqf0wZ47r2KnCCiBu0RYwb17cNxfdYLsCNUB0WJzr0R+haf1msRGbiYMVQLw05xF/BCD9YN++OO4xy76qWhN0RnwFIOvh7bfFa/QTOHjQdepUYQUQp7MTUKjOgMWL47jHu3DLLWVz35lEnDPT0l1w882V30Ea2kG/xFkBJErkdnjttcpvqAegUSMk8i50rGxiT1OeFA2ITQ5aAo0bX+SGI2H/fsiaC++95zp2qrECSJBI6G+wbRsqI8smsbyoaXYsoCr0prjWm2oBLFx4/iSjJl5WAFUl8r/xDTmlqxVAlayNc99/ACxY4DpsqrICqCrVr/yjzTIMTpy4yA2LoFs31d1T4ZJLXMdOdqp774tdaSgPunat+JZSABs3ihfKgS1bXOdOVTaddRX5b7wjR1TDs8tONvn1ry9w09iVby4bBC+/rBq+1t9nNRcm+PMqaGVXDFob+7NsoK+vUF1WANWlDIZ58xB+qKAASm/4Zxg61HXc5KeV/Ls8BidPgjcdlixxnTbV2S5AdUmoIXzwAXAUdu92HSf96U3wxhsiWVlQVOQ6TaqzAqgmERGIRv0LhSxc6DpP2lNa2N/7a44VQE3Rkhdj+6Rh0MrGsSZh0hy+/x4J9YbVq12nSRdWADVEvNw1UFgIrIF1lV2i2yRuIsyb54+4Skpch0kXVgA1r6kNUWtDyRj48EPXKdKNFUDNmwbr17sOkXY0Y7x/rMXUJCsAYwLMCsCYALMCMCbArACMCTArAGMCzArAmACzAjAmwKwAjAkwKwBjAswKwJgAswlBKqSzYMAA1fAqyM1FNRN27gSvo7/UDfDdd/7ZaXv3lp0WbOpC2aXXwn2hWTPw+kHr1qi8Dq1bI9EesZ+vg4ICUJs27AKsACr2gP/GASgoKLvM39kzfWPz1UUmwOnTqpFhsGsXqn+EcBjhiOsnkF70W5g6VaORNnD55RAZ5V+GXeb5U4fFXhfR3ufdTfQe18mTmRVA9f0G6tf334D5+f6Gn5/vOlTaEX0ZOnVyHSPd2DEAYwLMCsCYALNdgArJDnjiCSj5wJ/00/sfaNUKZJ2/ZLS/1K9iPz8Y+/e+sd/7lwYzNWU6nD4Nsgd27QLmxQ7GjvOX8i/+kgGwcycanRI7aDsDbrgB0eXw6quun0SysQKoWD4cPSqS2wU+/9z/VekSgCnlbv82gGr4NrjmGv9XX33l+kmkDfVK4Oc/Fy97Lnz00Tn/8ny5Zam7ADQaPhQraHMBtgtgTIBZARgTYFYAxgSYFYAxAWYFYEyAWQEYE2BWAMYEmBWAMQFmBWBMgFkBGBNgVgDGBJgVgDEBZgVgTIBZARgTYFYAxgSYFYAxAWYFYEyAWQEYE2BWAMYEmBWAMQFmBWBSg+jj0K2b6xjpxgqghmhUo5CRAZIPAwe6zpN+VOG55zQaXgXvvOMvW7RwnSrVWQFUk2qkDXTogBR1h48/Bn0WnnrKda60JXSFXr0Q2sPWraqRh+D++8suFmoSYQWQoNJPetXIJzBuHOgvYdMm0OXQubPrfAGSDVdcAfo7mD0bIvvh3Xc1GukPV17pOlyqsAuDxOnsJz1F3WHu3HM2+EmusxkAMqFnT0SfhS1bVCN5MHYsqkBRketwycoKoELa0/+kD7eAJ5/0P+knTAAm+ZejTvTh5Dt47jmk5CpYvtz1s0t+3hh49FFgaoLHVM4fGQgbYpcS6+r6GSUjK4AKyS6YPBn0a/969FV+nDvh008h+79hwgQR8eDMGdfPLtmpFimMGgV6CfzsZ6DfQ/PmVXiortCypevnk6zsGECFqrvh8zScOoXSG4YPF882/ESIZAscPgzshREjXOdJV1YAtUanwO9/L15oLGzd6jpNqhIJhWDVKpAnYP5813nSjRVATVNGwxdfoDmXwgsvuI6TNpTn4eGHgfqwZ4/rOOnCCqDmTI9dv/4lGDLEH/IXF7sOlS7EC+XAkSMgxfDAA67zpAsrgJrzMUyc6L9Rt2xxHSZdnbNLMAMWLHCdJ9VZAVSX8ix8+SUa+gCmTHEdJzCUf4PRo7FdgmqxAqi66bEh/3gYPNiG/HXr7C6Bep3gwQdd50lV9j2AqsuHY8eAX8C0aRqNdHQdKJg0tpTH4ORJ0KnQsKHrVKnCCkD4q3+mWcJuh1AI0duhRw/XT8MkqOqve1qxXQCi+XDihOsUpq6VLIfjx12ncM0KQL2jcPCg6ximrnnf2OtuBQBkzIZvvnGdwtSZsD/0z/g/e92tABCv0U/g4MGzf84zaU7+HT7/XKTxeAiHXadxLfAFcJYwFd5803UMU9u0rb3OZawASqlEYufph+3ocFqKva7yEqxY4TpMsrACiCn7Cq/80t4gaekELFsmEvobbNvmOkyysEkUy9HowU/g6qsRb33sNN57IDPTdS5TZQuhuBiNLocOHcTLXQOFha5DJQsbAZQjXm4X2L4deNifEcikuHx45hnb8C/MRgAVKJtmOvJXWLIEaAH9+rnOZeKk8s+wYgWS/RHcdZeIiB3b+Uc2AqhA2RumeB8MHw68AWvXus5lKvUKrFmDnH4KBg+2Df/ibAQQJ/96AA0aIEXXwaxZoH+BYcNc5zJn9YNFi+Doh3DvvSKtxT85yFyMjQDi5J/ue+qUSGirPyKQ3/mTVcrTcOCA63zBIyNh/37gpL/B56yGQYNsw0+MjQCqSaOH+kCjRoh3EsaMAe0FI0cCQyAnx3W+tKFMhUOHEJ6FmTPRkqXwwgvi5fWPnZZtqsAKoIb5Bw/r1YNDQEEB6p2Evn2BTLjpJkRGQ5s2oDmQlQX8BurXd53boemxiVXC/jTgOh6+/RblKKxfj3h/h7fegqxbYe1af5++pMR16HTx/5jvzfetBQefAAAAJXRFWHRkYXRlOmNyZWF0ZQAyMDIyLTA3LTEzVDA5OjIxOjU2KzAwOjAw3Ze4wQAAACV0RVh0ZGF0ZTptb2RpZnkAMjAyMi0wNy0xM1QwOToyMTo1NiswMDowMKzKAH0AAAAodEVYdGRhdGU6dGltZXN0YW1wADIwMjItMDctMTNUMDk6MjE6NTYrMDA6MDD73yGiAAAAAElFTkSuQmCC;rotation=90;" vertex="1" parent="uIabnYWw43FszIrwxXQ7-10">
          <mxGeometry x="454" y="-14" width="88" height="88" as="geometry" />
        </mxCell>
        <mxCell id="uIabnYWw43FszIrwxXQ7-15" value="" style="shape=image;verticalLabelPosition=bottom;labelBackgroundColor=default;verticalAlign=top;aspect=fixed;imageAspect=0;image=data:image/png,iVBORw0KGgoAAAANSUhEUgAAAIAAAACAEAYAAACTrr2IAAAABGdBTUEAALGPC/xhBQAAACBjSFJNAAB6JgAAgIQAAPoAAACA6AAAdTAAAOpgAAA6mAAAF3CculE8AAAABmJLR0QAAAAAAAD5Q7t/AAAACXBIWXMAAABgAAAAYADwa0LPAAAAB3RJTUUH5gcNCRU4XOUz9wAADq5JREFUeNrt3XuQVOWZx/Hvc5gBvIAzPcwUBJTrSFwsLwECUk5FkYSAQnZLFwIit1JRWDFeACNKJaBoKKHQBRET5BYohIVVES+r7G4EBFFUAqjFYJAFCbfuAQrkMkw/+8fpYWDCMN1ze7v7PJ9/Ts3Q3fz6dJ9fv+dMn/cIplZoNLwKWrRA5E7o1w/0t9C9O/AoXH89yEPQpAnoVGjY0HVed2QYnDgBugjCYeBx+PJLoC+sXg36CixdKtJkJezd6zptuhHXAdKFRouehJYtEW0AEyeCtoGBA4HekJHhOl8KWwjFxSDvw6JFKI1hwgTxQq/D7t2uw6U6K4BqUj1UCKNGoV5f+MMfEF0Ll13mOlf6kmvg2DGUSfD44+KFRsDs2a5TpSorgASpqkK9elB0P8yZA/o8DBniOldgKX+HP/0JCXWAESNERCAadR0rVXiuA6QKf8MXQSPvwKxZtuEnCaEZ3HsvFPWGOXP818mz93WcbEXFLdINZs5E6Ar33ec6jSlP/wxDh0LRSnjpJddpUoXtAlRCo4f+C+65B5GOsGCB6zwmXiJw990ioRAsXuw6TbKyEUAFVMMNoXlzRIrhxRdd5zGJ0kKYOVOjkf5w5ZWu0yQrK4CKzYBXXwW6Qna26zAmYe0gKwvR4zBzpuswycp2AcrR6KH/gM6dEbkVNm50ncfUlGgUOnUSyc2FTZtcp0kWNgIoT7yxMG6c6ximpnkbYcwY1ymSjY0AYlQPj4fWraGkD+zYAeTbn5PSygYoKUG9ddC2rXjZk2HXLtehXLM3eCkt+R769ME2/HTVFerVQ0qGwR13uA6TLOyNXkq4GXr2dB3D1DZ5xF7nMoHfBdCoRqFBA6SoACIR0Lfg0ktd5zK1ROVmOH4csrdBdrZ44vknGwWTjQCkqB20a2cbfkCUnqwl4V9Bmzau47hmBQDToWVL1yFMHVNZCq1auY7hmhUALIJGjVyHMHVMpANccYXrGK5ZAagch8xM1zFMHVP5J6hf33UM16wAjAkwKwBjAswKwJgAswIwJsCsAIwJMCsAYwLM5qtPG9IXfvgB9D44cAC4NjZ99g1w7BhIFzh2DKE/HD+O6nA4ffofH0aehcxMlI/g8stBP/GXDPG/Ms1ACIVAJkNurn2DMrVZASSLs99R115QWIjIy7BjB8o6/2d9DwoLUe8N/3TlMw1h3z6k5CnYu1ek6Tr//qyr5H8qnQxjbJzJyr9HFp0XO3rgQ78gpBX86EdQrx3k5SHaGdq2RWUZtG+P8K9w9dWgS6F9e+A1yM8HJkGDBq5Xf1BZAdS++RAOo7SHjRsReQg+/RT4DDZuRHU9bN4sXuhr2LMH+Lrc/TtW8vhOz2wTL6+/P8IA2L79/OXatRfI3wlKT8LKzITwr+D66xGmQZcu4C2Gn/4UeMf/WRf6xUGOP9GnqUlWANVXD44eBRkBq1ejdIf334czWbB6tXh5j8YmGCkv5Dq4S+efhffZZ8DK2JJz5/BTPbgUmjUD70bo1QvkTn+pf4EePSid+8+YqtBo0R0waJBqOOxf/iPu5U545BH/k8yu/VfXSte7auQGeOyxhF+/2Ovu+nm4Zn8FqDLZBE2a+J9kZ864ThM0ZetdW0Jenus8qcoKoKqUEXDbba5jBJ5Kw9hl100VWAFUlegC6NRJtUhtH7TunV3vooPhxhtd50lVVgBV508yqQyFggLXYYInegnceiulr4OpEiuA6hL9xnYFXJCltt6rzwqg2nSmvRGduNv2/avPCqD6GkOHDqoHXoemTV2HSXeqB5/xvxegm+DHP3adJ9VZAVRf7BtqGTmxfVJTmzRjQ2zEZd8MrAFWADVGO9uuQB0Q/S7Bof/TcOqU69jJygqgYrGv+MbtP60A6oK+luB6HgFvvuk6dbKyAqiYwLJlCdy+D7RqVXaRUVOTNHrgdf8CLrSFq66K4y6rIBJBvfGwcqXr/MnKCqBCUhK7jvwfYfPmuO+m0VdsJFAbMg4ntl5lKyxaBNF5tgtQMSuAyvWH+fPjvrXoZCuA2qB3JrZevR0wd67r1MnOCqAyWrzd/yRhYXwXkZTN0L27qqodpa6+s+tR+C3cckscd9kJW7eKZK2AL75wnT/ZWQFUQrymPf0ptmQXrFpV+T10EuTloUURuPZa1/lTnh5eAtddBzzvT0FWqf0wZ47r2KnCCiBu0RYwb17cNxfdYLsCNUB0WJzr0R+haf1msRGbiYMVQLw05xF/BCD9YN++OO4xy76qWhN0RnwFIOvh7bfFa/QTOHjQdepUYQUQp7MTUKjOgMWL47jHu3DLLWVz35lEnDPT0l1w882V30Ea2kG/xFkBJErkdnjttcpvqAegUSMk8i50rGxiT1OeFA2ITQ5aAo0bX+SGI2H/fsiaC++95zp2qrECSJBI6G+wbRsqI8smsbyoaXYsoCr0prjWm2oBLFx4/iSjJl5WAFUl8r/xDTmlqxVAlayNc99/ACxY4DpsqrICqCrVr/yjzTIMTpy4yA2LoFs31d1T4ZJLXMdOdqp774tdaSgPunat+JZSABs3ihfKgS1bXOdOVTaddRX5b7wjR1TDs8tONvn1ry9w09iVby4bBC+/rBq+1t9nNRcm+PMqaGVXDFob+7NsoK+vUF1WANWlDIZ58xB+qKAASm/4Zxg61HXc5KeV/Ls8BidPgjcdlixxnTbV2S5AdUmoIXzwAXAUdu92HSf96U3wxhsiWVlQVOQ6TaqzAqgmERGIRv0LhSxc6DpP2lNa2N/7a44VQE3Rkhdj+6Rh0MrGsSZh0hy+/x4J9YbVq12nSRdWADVEvNw1UFgIrIF1lV2i2yRuIsyb54+4Skpch0kXVgA1r6kNUWtDyRj48EPXKdKNFUDNmwbr17sOkXY0Y7x/rMXUJCsAYwLMCsCYALMCMCbArACMCTArAGMCzArAmACzAjAmwKwAjAkwKwBjAswKwJgAswlBKqSzYMAA1fAqyM1FNRN27gSvo7/UDfDdd/7ZaXv3lp0WbOpC2aXXwn2hWTPw+kHr1qi8Dq1bI9EesZ+vg4ICUJs27AKsACr2gP/GASgoKLvM39kzfWPz1UUmwOnTqpFhsGsXqn+EcBjhiOsnkF70W5g6VaORNnD55RAZ5V+GXeb5U4fFXhfR3ufdTfQe18mTmRVA9f0G6tf334D5+f6Gn5/vOlTaEX0ZOnVyHSPd2DEAYwLMCsCYALNdgArJDnjiCSj5wJ/00/sfaNUKZJ2/ZLS/1K9iPz8Y+/e+sd/7lwYzNWU6nD4Nsgd27QLmxQ7GjvOX8i/+kgGwcycanRI7aDsDbrgB0eXw6quun0SysQKoWD4cPSqS2wU+/9z/VekSgCnlbv82gGr4NrjmGv9XX33l+kmkDfVK4Oc/Fy97Lnz00Tn/8ny5Zam7ADQaPhQraHMBtgtgTIBZARgTYFYAxgSYFYAxAWYFYEyAWQEYE2BWAMYEmBWAMQFmBWBMgFkBGBNgVgDGBJgVgDEBZgVgTIBZARgTYFYAxgSYFYAxAWYFYEyAWQEYE2BWAMYEmBWAMQFmBWBSg+jj0K2b6xjpxgqghmhUo5CRAZIPAwe6zpN+VOG55zQaXgXvvOMvW7RwnSrVWQFUk2qkDXTogBR1h48/Bn0WnnrKda60JXSFXr0Q2sPWraqRh+D++8suFmoSYQWQoNJPetXIJzBuHOgvYdMm0OXQubPrfAGSDVdcAfo7mD0bIvvh3Xc1GukPV17pOlyqsAuDxOnsJz1F3WHu3HM2+EmusxkAMqFnT0SfhS1bVCN5MHYsqkBRketwycoKoELa0/+kD7eAJ5/0P+knTAAm+ZejTvTh5Dt47jmk5CpYvtz1s0t+3hh49FFgaoLHVM4fGQgbYpcS6+r6GSUjK4AKyS6YPBn0a/969FV+nDvh008h+79hwgQR8eDMGdfPLtmpFimMGgV6CfzsZ6DfQ/PmVXiortCypevnk6zsGECFqrvh8zScOoXSG4YPF882/ESIZAscPgzshREjXOdJV1YAtUanwO9/L15oLGzd6jpNqhIJhWDVKpAnYP5813nSjRVATVNGwxdfoDmXwgsvuI6TNpTn4eGHgfqwZ4/rOOnCCqDmTI9dv/4lGDLEH/IXF7sOlS7EC+XAkSMgxfDAA67zpAsrgJrzMUyc6L9Rt2xxHSZdnbNLMAMWLHCdJ9VZAVSX8ix8+SUa+gCmTHEdJzCUf4PRo7FdgmqxAqi66bEh/3gYPNiG/HXr7C6Bep3gwQdd50lV9j2AqsuHY8eAX8C0aRqNdHQdKJg0tpTH4ORJ0KnQsKHrVKnCCkD4q3+mWcJuh1AI0duhRw/XT8MkqOqve1qxXQCi+XDihOsUpq6VLIfjx12ncM0KQL2jcPCg6ximrnnf2OtuBQBkzIZvvnGdwtSZsD/0z/g/e92tABCv0U/g4MGzf84zaU7+HT7/XKTxeAiHXadxLfAFcJYwFd5803UMU9u0rb3OZawASqlEYufph+3ocFqKva7yEqxY4TpMsrACiCn7Cq/80t4gaekELFsmEvobbNvmOkyysEkUy9HowU/g6qsRb33sNN57IDPTdS5TZQuhuBiNLocOHcTLXQOFha5DJQsbAZQjXm4X2L4deNifEcikuHx45hnb8C/MRgAVKJtmOvJXWLIEaAH9+rnOZeKk8s+wYgWS/RHcdZeIiB3b+Uc2AqhA2RumeB8MHw68AWvXus5lKvUKrFmDnH4KBg+2Df/ibAQQJ/96AA0aIEXXwaxZoH+BYcNc5zJn9YNFi+Doh3DvvSKtxT85yFyMjQDi5J/ue+qUSGirPyKQ3/mTVcrTcOCA63zBIyNh/37gpL/B56yGQYNsw0+MjQCqSaOH+kCjRoh3EsaMAe0FI0cCQyAnx3W+tKFMhUOHEJ6FmTPRkqXwwgvi5fWPnZZtqsAKoIb5Bw/r1YNDQEEB6p2Evn2BTLjpJkRGQ5s2oDmQlQX8BurXd53boemxiVXC/jTgOh6+/RblKKxfj3h/h7fegqxbYe1af5++pMR16HTx/5jvzfetBQefAAAAJXRFWHRkYXRlOmNyZWF0ZQAyMDIyLTA3LTEzVDA5OjIxOjU2KzAwOjAw3Ze4wQAAACV0RVh0ZGF0ZTptb2RpZnkAMjAyMi0wNy0xM1QwOToyMTo1NiswMDowMKzKAH0AAAAodEVYdGRhdGU6dGltZXN0YW1wADIwMjItMDctMTNUMDk6MjE6NTYrMDA6MDD73yGiAAAAAElFTkSuQmCC;rotation=-90;" vertex="1" parent="1">
          <mxGeometry x="853" y="663" width="88" height="88" as="geometry" />
        </mxCell>
        <mxCell id="uIabnYWw43FszIrwxXQ7-18" value="" style="shape=image;verticalLabelPosition=bottom;labelBackgroundColor=default;verticalAlign=top;aspect=fixed;imageAspect=0;image=data:image/png,iVBORw0KGgoAAAANSUhEUgAAAIAAAACAEAYAAACTrr2IAAAABGdBTUEAALGPC/xhBQAAACBjSFJNAAB6JgAAgIQAAPoAAACA6AAAdTAAAOpgAAA6mAAAF3CculE8AAAABmJLR0QAAAAAAAD5Q7t/AAAACXBIWXMAAABgAAAAYADwa0LPAAAAB3RJTUUH5gcNCRU4XOUz9wAADq5JREFUeNrt3XuQVOWZx/Hvc5gBvIAzPcwUBJTrSFwsLwECUk5FkYSAQnZLFwIit1JRWDFeACNKJaBoKKHQBRET5BYohIVVES+r7G4EBFFUAqjFYJAFCbfuAQrkMkw/+8fpYWDCMN1ze7v7PJ9/Ts3Q3fz6dJ9fv+dMn/cIplZoNLwKWrRA5E7o1w/0t9C9O/AoXH89yEPQpAnoVGjY0HVed2QYnDgBugjCYeBx+PJLoC+sXg36CixdKtJkJezd6zptuhHXAdKFRouehJYtEW0AEyeCtoGBA4HekJHhOl8KWwjFxSDvw6JFKI1hwgTxQq/D7t2uw6U6K4BqUj1UCKNGoV5f+MMfEF0Ll13mOlf6kmvg2DGUSfD44+KFRsDs2a5TpSorgASpqkK9elB0P8yZA/o8DBniOldgKX+HP/0JCXWAESNERCAadR0rVXiuA6QKf8MXQSPvwKxZtuEnCaEZ3HsvFPWGOXP818mz93WcbEXFLdINZs5E6Ar33ec6jSlP/wxDh0LRSnjpJddpUoXtAlRCo4f+C+65B5GOsGCB6zwmXiJw990ioRAsXuw6TbKyEUAFVMMNoXlzRIrhxRdd5zGJ0kKYOVOjkf5w5ZWu0yQrK4CKzYBXXwW6Qna26zAmYe0gKwvR4zBzpuswycp2AcrR6KH/gM6dEbkVNm50ncfUlGgUOnUSyc2FTZtcp0kWNgIoT7yxMG6c6ximpnkbYcwY1ymSjY0AYlQPj4fWraGkD+zYAeTbn5PSygYoKUG9ddC2rXjZk2HXLtehXLM3eCkt+R769ME2/HTVFerVQ0qGwR13uA6TLOyNXkq4GXr2dB3D1DZ5xF7nMoHfBdCoRqFBA6SoACIR0Lfg0ktd5zK1ROVmOH4csrdBdrZ44vknGwWTjQCkqB20a2cbfkCUnqwl4V9Bmzau47hmBQDToWVL1yFMHVNZCq1auY7hmhUALIJGjVyHMHVMpANccYXrGK5ZAagch8xM1zFMHVP5J6hf33UM16wAjAkwKwBjAswKwJgAswIwJsCsAIwJMCsAYwLM5qtPG9IXfvgB9D44cAC4NjZ99g1w7BhIFzh2DKE/HD+O6nA4ffofH0aehcxMlI/g8stBP/GXDPG/Ms1ACIVAJkNurn2DMrVZASSLs99R115QWIjIy7BjB8o6/2d9DwoLUe8N/3TlMw1h3z6k5CnYu1ek6Tr//qyr5H8qnQxjbJzJyr9HFp0XO3rgQ78gpBX86EdQrx3k5SHaGdq2RWUZtG+P8K9w9dWgS6F9e+A1yM8HJkGDBq5Xf1BZAdS++RAOo7SHjRsReQg+/RT4DDZuRHU9bN4sXuhr2LMH+Lrc/TtW8vhOz2wTL6+/P8IA2L79/OXatRfI3wlKT8LKzITwr+D66xGmQZcu4C2Gn/4UeMf/WRf6xUGOP9GnqUlWANVXD44eBRkBq1ejdIf334czWbB6tXh5j8YmGCkv5Dq4S+efhffZZ8DK2JJz5/BTPbgUmjUD70bo1QvkTn+pf4EePSid+8+YqtBo0R0waJBqOOxf/iPu5U545BH/k8yu/VfXSte7auQGeOyxhF+/2Ovu+nm4Zn8FqDLZBE2a+J9kZ864ThM0ZetdW0Jenus8qcoKoKqUEXDbba5jBJ5Kw9hl100VWAFUlegC6NRJtUhtH7TunV3vooPhxhtd50lVVgBV508yqQyFggLXYYInegnceiulr4OpEiuA6hL9xnYFXJCltt6rzwqg2nSmvRGduNv2/avPCqD6GkOHDqoHXoemTV2HSXeqB5/xvxegm+DHP3adJ9VZAVRf7BtqGTmxfVJTmzRjQ2zEZd8MrAFWADVGO9uuQB0Q/S7Bof/TcOqU69jJygqgYrGv+MbtP60A6oK+luB6HgFvvuk6dbKyAqiYwLJlCdy+D7RqVXaRUVOTNHrgdf8CLrSFq66K4y6rIBJBvfGwcqXr/MnKCqBCUhK7jvwfYfPmuO+m0VdsJFAbMg4ntl5lKyxaBNF5tgtQMSuAyvWH+fPjvrXoZCuA2qB3JrZevR0wd67r1MnOCqAyWrzd/yRhYXwXkZTN0L27qqodpa6+s+tR+C3cckscd9kJW7eKZK2AL75wnT/ZWQFUQrymPf0ptmQXrFpV+T10EuTloUURuPZa1/lTnh5eAtddBzzvT0FWqf0wZ47r2KnCCiBu0RYwb17cNxfdYLsCNUB0WJzr0R+haf1msRGbiYMVQLw05xF/BCD9YN++OO4xy76qWhN0RnwFIOvh7bfFa/QTOHjQdepUYQUQp7MTUKjOgMWL47jHu3DLLWVz35lEnDPT0l1w882V30Ea2kG/xFkBJErkdnjttcpvqAegUSMk8i50rGxiT1OeFA2ITQ5aAo0bX+SGI2H/fsiaC++95zp2qrECSJBI6G+wbRsqI8smsbyoaXYsoCr0prjWm2oBLFx4/iSjJl5WAFUl8r/xDTmlqxVAlayNc99/ACxY4DpsqrICqCrVr/yjzTIMTpy4yA2LoFs31d1T4ZJLXMdOdqp774tdaSgPunat+JZSABs3ihfKgS1bXOdOVTaddRX5b7wjR1TDs8tONvn1ry9w09iVby4bBC+/rBq+1t9nNRcm+PMqaGVXDFob+7NsoK+vUF1WANWlDIZ58xB+qKAASm/4Zxg61HXc5KeV/Ls8BidPgjcdlixxnTbV2S5AdUmoIXzwAXAUdu92HSf96U3wxhsiWVlQVOQ6TaqzAqgmERGIRv0LhSxc6DpP2lNa2N/7a44VQE3Rkhdj+6Rh0MrGsSZh0hy+/x4J9YbVq12nSRdWADVEvNw1UFgIrIF1lV2i2yRuIsyb54+4Skpch0kXVgA1r6kNUWtDyRj48EPXKdKNFUDNmwbr17sOkXY0Y7x/rMXUJCsAYwLMCsCYALMCMCbArACMCTArAGMCzArAmACzAjAmwKwAjAkwKwBjAswKwJgAswlBKqSzYMAA1fAqyM1FNRN27gSvo7/UDfDdd/7ZaXv3lp0WbOpC2aXXwn2hWTPw+kHr1qi8Dq1bI9EesZ+vg4ICUJs27AKsACr2gP/GASgoKLvM39kzfWPz1UUmwOnTqpFhsGsXqn+EcBjhiOsnkF70W5g6VaORNnD55RAZ5V+GXeb5U4fFXhfR3ufdTfQe18mTmRVA9f0G6tf334D5+f6Gn5/vOlTaEX0ZOnVyHSPd2DEAYwLMCsCYALNdgArJDnjiCSj5wJ/00/sfaNUKZJ2/ZLS/1K9iPz8Y+/e+sd/7lwYzNWU6nD4Nsgd27QLmxQ7GjvOX8i/+kgGwcycanRI7aDsDbrgB0eXw6quun0SysQKoWD4cPSqS2wU+/9z/VekSgCnlbv82gGr4NrjmGv9XX33l+kmkDfVK4Oc/Fy97Lnz00Tn/8ny5Zam7ADQaPhQraHMBtgtgTIBZARgTYFYAxgSYFYAxAWYFYEyAWQEYE2BWAMYEmBWAMQFmBWBMgFkBGBNgVgDGBJgVgDEBZgVgTIBZARgTYFYAxgSYFYAxAWYFYEyAWQEYE2BWAMYEmBWAMQFmBWBSg+jj0K2b6xjpxgqghmhUo5CRAZIPAwe6zpN+VOG55zQaXgXvvOMvW7RwnSrVWQFUk2qkDXTogBR1h48/Bn0WnnrKda60JXSFXr0Q2sPWraqRh+D++8suFmoSYQWQoNJPetXIJzBuHOgvYdMm0OXQubPrfAGSDVdcAfo7mD0bIvvh3Xc1GukPV17pOlyqsAuDxOnsJz1F3WHu3HM2+EmusxkAMqFnT0SfhS1bVCN5MHYsqkBRketwycoKoELa0/+kD7eAJ5/0P+knTAAm+ZejTvTh5Dt47jmk5CpYvtz1s0t+3hh49FFgaoLHVM4fGQgbYpcS6+r6GSUjK4AKyS6YPBn0a/969FV+nDvh008h+79hwgQR8eDMGdfPLtmpFimMGgV6CfzsZ6DfQ/PmVXiortCypevnk6zsGECFqrvh8zScOoXSG4YPF882/ESIZAscPgzshREjXOdJV1YAtUanwO9/L15oLGzd6jpNqhIJhWDVKpAnYP5813nSjRVATVNGwxdfoDmXwgsvuI6TNpTn4eGHgfqwZ4/rOOnCCqDmTI9dv/4lGDLEH/IXF7sOlS7EC+XAkSMgxfDAA67zpAsrgJrzMUyc6L9Rt2xxHSZdnbNLMAMWLHCdJ9VZAVSX8ix8+SUa+gCmTHEdJzCUf4PRo7FdgmqxAqi66bEh/3gYPNiG/HXr7C6Bep3gwQdd50lV9j2AqsuHY8eAX8C0aRqNdHQdKJg0tpTH4ORJ0KnQsKHrVKnCCkD4q3+mWcJuh1AI0duhRw/XT8MkqOqve1qxXQCi+XDihOsUpq6VLIfjx12ncM0KQL2jcPCg6ximrnnf2OtuBQBkzIZvvnGdwtSZsD/0z/g/e92tABCv0U/g4MGzf84zaU7+HT7/XKTxeAiHXadxLfAFcJYwFd5803UMU9u0rb3OZawASqlEYufph+3ocFqKva7yEqxY4TpMsrACiCn7Cq/80t4gaekELFsmEvobbNvmOkyysEkUy9HowU/g6qsRb33sNN57IDPTdS5TZQuhuBiNLocOHcTLXQOFha5DJQsbAZQjXm4X2L4deNifEcikuHx45hnb8C/MRgAVKJtmOvJXWLIEaAH9+rnOZeKk8s+wYgWS/RHcdZeIiB3b+Uc2AqhA2RumeB8MHw68AWvXus5lKvUKrFmDnH4KBg+2Df/ibAQQJ/96AA0aIEXXwaxZoH+BYcNc5zJn9YNFi+Doh3DvvSKtxT85yFyMjQDi5J/ue+qUSGirPyKQ3/mTVcrTcOCA63zBIyNh/37gpL/B56yGQYNsw0+MjQCqSaOH+kCjRoh3EsaMAe0FI0cCQyAnx3W+tKFMhUOHEJ6FmTPRkqXwwgvi5fWPnZZtqsAKoIb5Bw/r1YNDQEEB6p2Evn2BTLjpJkRGQ5s2oDmQlQX8BurXd53boemxiVXC/jTgOh6+/RblKKxfj3h/h7fegqxbYe1af5++pMR16HTx/5jvzfetBQefAAAAJXRFWHRkYXRlOmNyZWF0ZQAyMDIyLTA3LTEzVDA5OjIxOjU2KzAwOjAw3Ze4wQAAACV0RVh0ZGF0ZTptb2RpZnkAMjAyMi0wNy0xM1QwOToyMTo1NiswMDowMKzKAH0AAAAodEVYdGRhdGU6dGltZXN0YW1wADIwMjItMDctMTNUMDk6MjE6NTYrMDA6MDD73yGiAAAAAElFTkSuQmCC;rotation=-90;" vertex="1" parent="1">
          <mxGeometry x="1283" y="663" width="88" height="88" as="geometry" />
        </mxCell>
        <mxCell id="uIabnYWw43FszIrwxXQ7-19" value="" style="shape=image;verticalLabelPosition=bottom;labelBackgroundColor=default;verticalAlign=top;aspect=fixed;imageAspect=0;image=data:image/png,iVBORw0KGgoAAAANSUhEUgAAAIAAAACAEAYAAACTrr2IAAAABGdBTUEAALGPC/xhBQAAACBjSFJNAAB6JgAAgIQAAPoAAACA6AAAdTAAAOpgAAA6mAAAF3CculE8AAAABmJLR0QAAAAAAAD5Q7t/AAAACXBIWXMAAABgAAAAYADwa0LPAAAAB3RJTUUH5gcNCRU4XOUz9wAADq5JREFUeNrt3XuQVOWZx/Hvc5gBvIAzPcwUBJTrSFwsLwECUk5FkYSAQnZLFwIit1JRWDFeACNKJaBoKKHQBRET5BYohIVVES+r7G4EBFFUAqjFYJAFCbfuAQrkMkw/+8fpYWDCMN1ze7v7PJ9/Ts3Q3fz6dJ9fv+dMn/cIplZoNLwKWrRA5E7o1w/0t9C9O/AoXH89yEPQpAnoVGjY0HVed2QYnDgBugjCYeBx+PJLoC+sXg36CixdKtJkJezd6zptuhHXAdKFRouehJYtEW0AEyeCtoGBA4HekJHhOl8KWwjFxSDvw6JFKI1hwgTxQq/D7t2uw6U6K4BqUj1UCKNGoV5f+MMfEF0Ll13mOlf6kmvg2DGUSfD44+KFRsDs2a5TpSorgASpqkK9elB0P8yZA/o8DBniOldgKX+HP/0JCXWAESNERCAadR0rVXiuA6QKf8MXQSPvwKxZtuEnCaEZ3HsvFPWGOXP818mz93WcbEXFLdINZs5E6Ar33ec6jSlP/wxDh0LRSnjpJddpUoXtAlRCo4f+C+65B5GOsGCB6zwmXiJw990ioRAsXuw6TbKyEUAFVMMNoXlzRIrhxRdd5zGJ0kKYOVOjkf5w5ZWu0yQrK4CKzYBXXwW6Qna26zAmYe0gKwvR4zBzpuswycp2AcrR6KH/gM6dEbkVNm50ncfUlGgUOnUSyc2FTZtcp0kWNgIoT7yxMG6c6ximpnkbYcwY1ymSjY0AYlQPj4fWraGkD+zYAeTbn5PSygYoKUG9ddC2rXjZk2HXLtehXLM3eCkt+R769ME2/HTVFerVQ0qGwR13uA6TLOyNXkq4GXr2dB3D1DZ5xF7nMoHfBdCoRqFBA6SoACIR0Lfg0ktd5zK1ROVmOH4csrdBdrZ44vknGwWTjQCkqB20a2cbfkCUnqwl4V9Bmzau47hmBQDToWVL1yFMHVNZCq1auY7hmhUALIJGjVyHMHVMpANccYXrGK5ZAagch8xM1zFMHVP5J6hf33UM16wAjAkwKwBjAswKwJgAswIwJsCsAIwJMCsAYwLM5qtPG9IXfvgB9D44cAC4NjZ99g1w7BhIFzh2DKE/HD+O6nA4ffofH0aehcxMlI/g8stBP/GXDPG/Ms1ACIVAJkNurn2DMrVZASSLs99R115QWIjIy7BjB8o6/2d9DwoLUe8N/3TlMw1h3z6k5CnYu1ek6Tr//qyr5H8qnQxjbJzJyr9HFp0XO3rgQ78gpBX86EdQrx3k5SHaGdq2RWUZtG+P8K9w9dWgS6F9e+A1yM8HJkGDBq5Xf1BZAdS++RAOo7SHjRsReQg+/RT4DDZuRHU9bN4sXuhr2LMH+Lrc/TtW8vhOz2wTL6+/P8IA2L79/OXatRfI3wlKT8LKzITwr+D66xGmQZcu4C2Gn/4UeMf/WRf6xUGOP9GnqUlWANVXD44eBRkBq1ejdIf334czWbB6tXh5j8YmGCkv5Dq4S+efhffZZ8DK2JJz5/BTPbgUmjUD70bo1QvkTn+pf4EePSid+8+YqtBo0R0waJBqOOxf/iPu5U545BH/k8yu/VfXSte7auQGeOyxhF+/2Ovu+nm4Zn8FqDLZBE2a+J9kZ864ThM0ZetdW0Jenus8qcoKoKqUEXDbba5jBJ5Kw9hl100VWAFUlegC6NRJtUhtH7TunV3vooPhxhtd50lVVgBV508yqQyFggLXYYInegnceiulr4OpEiuA6hL9xnYFXJCltt6rzwqg2nSmvRGduNv2/avPCqD6GkOHDqoHXoemTV2HSXeqB5/xvxegm+DHP3adJ9VZAVRf7BtqGTmxfVJTmzRjQ2zEZd8MrAFWADVGO9uuQB0Q/S7Bof/TcOqU69jJygqgYrGv+MbtP60A6oK+luB6HgFvvuk6dbKyAqiYwLJlCdy+D7RqVXaRUVOTNHrgdf8CLrSFq66K4y6rIBJBvfGwcqXr/MnKCqBCUhK7jvwfYfPmuO+m0VdsJFAbMg4ntl5lKyxaBNF5tgtQMSuAyvWH+fPjvrXoZCuA2qB3JrZevR0wd67r1MnOCqAyWrzd/yRhYXwXkZTN0L27qqodpa6+s+tR+C3cckscd9kJW7eKZK2AL75wnT/ZWQFUQrymPf0ptmQXrFpV+T10EuTloUURuPZa1/lTnh5eAtddBzzvT0FWqf0wZ47r2KnCCiBu0RYwb17cNxfdYLsCNUB0WJzr0R+haf1msRGbiYMVQLw05xF/BCD9YN++OO4xy76qWhN0RnwFIOvh7bfFa/QTOHjQdepUYQUQp7MTUKjOgMWL47jHu3DLLWVz35lEnDPT0l1w882V30Ea2kG/xFkBJErkdnjttcpvqAegUSMk8i50rGxiT1OeFA2ITQ5aAo0bX+SGI2H/fsiaC++95zp2qrECSJBI6G+wbRsqI8smsbyoaXYsoCr0prjWm2oBLFx4/iSjJl5WAFUl8r/xDTmlqxVAlayNc99/ACxY4DpsqrICqCrVr/yjzTIMTpy4yA2LoFs31d1T4ZJLXMdOdqp774tdaSgPunat+JZSABs3ihfKgS1bXOdOVTaddRX5b7wjR1TDs8tONvn1ry9w09iVby4bBC+/rBq+1t9nNRcm+PMqaGVXDFob+7NsoK+vUF1WANWlDIZ58xB+qKAASm/4Zxg61HXc5KeV/Ls8BidPgjcdlixxnTbV2S5AdUmoIXzwAXAUdu92HSf96U3wxhsiWVlQVOQ6TaqzAqgmERGIRv0LhSxc6DpP2lNa2N/7a44VQE3Rkhdj+6Rh0MrGsSZh0hy+/x4J9YbVq12nSRdWADVEvNw1UFgIrIF1lV2i2yRuIsyb54+4Skpch0kXVgA1r6kNUWtDyRj48EPXKdKNFUDNmwbr17sOkXY0Y7x/rMXUJCsAYwLMCsCYALMCMCbArACMCTArAGMCzArAmACzAjAmwKwAjAkwKwBjAswKwJgAswlBKqSzYMAA1fAqyM1FNRN27gSvo7/UDfDdd/7ZaXv3lp0WbOpC2aXXwn2hWTPw+kHr1qi8Dq1bI9EesZ+vg4ICUJs27AKsACr2gP/GASgoKLvM39kzfWPz1UUmwOnTqpFhsGsXqn+EcBjhiOsnkF70W5g6VaORNnD55RAZ5V+GXeb5U4fFXhfR3ufdTfQe18mTmRVA9f0G6tf334D5+f6Gn5/vOlTaEX0ZOnVyHSPd2DEAYwLMCsCYALNdgArJDnjiCSj5wJ/00/sfaNUKZJ2/ZLS/1K9iPz8Y+/e+sd/7lwYzNWU6nD4Nsgd27QLmxQ7GjvOX8i/+kgGwcycanRI7aDsDbrgB0eXw6quun0SysQKoWD4cPSqS2wU+/9z/VekSgCnlbv82gGr4NrjmGv9XX33l+kmkDfVK4Oc/Fy97Lnz00Tn/8ny5Zam7ADQaPhQraHMBtgtgTIBZARgTYFYAxgSYFYAxAWYFYEyAWQEYE2BWAMYEmBWAMQFmBWBMgFkBGBNgVgDGBJgVgDEBZgVgTIBZARgTYFYAxgSYFYAxAWYFYEyAWQEYE2BWAMYEmBWAMQFmBWBSg+jj0K2b6xjpxgqghmhUo5CRAZIPAwe6zpN+VOG55zQaXgXvvOMvW7RwnSrVWQFUk2qkDXTogBR1h48/Bn0WnnrKda60JXSFXr0Q2sPWraqRh+D++8suFmoSYQWQoNJPetXIJzBuHOgvYdMm0OXQubPrfAGSDVdcAfo7mD0bIvvh3Xc1GukPV17pOlyqsAuDxOnsJz1F3WHu3HM2+EmusxkAMqFnT0SfhS1bVCN5MHYsqkBRketwycoKoELa0/+kD7eAJ5/0P+knTAAm+ZejTvTh5Dt47jmk5CpYvtz1s0t+3hh49FFgaoLHVM4fGQgbYpcS6+r6GSUjK4AKyS6YPBn0a/969FV+nDvh008h+79hwgQR8eDMGdfPLtmpFimMGgV6CfzsZ6DfQ/PmVXiortCypevnk6zsGECFqrvh8zScOoXSG4YPF882/ESIZAscPgzshREjXOdJV1YAtUanwO9/L15oLGzd6jpNqhIJhWDVKpAnYP5813nSjRVATVNGwxdfoDmXwgsvuI6TNpTn4eGHgfqwZ4/rOOnCCqDmTI9dv/4lGDLEH/IXF7sOlS7EC+XAkSMgxfDAA67zpAsrgJrzMUyc6L9Rt2xxHSZdnbNLMAMWLHCdJ9VZAVSX8ix8+SUa+gCmTHEdJzCUf4PRo7FdgmqxAqi66bEh/3gYPNiG/HXr7C6Bep3gwQdd50lV9j2AqsuHY8eAX8C0aRqNdHQdKJg0tpTH4ORJ0KnQsKHrVKnCCkD4q3+mWcJuh1AI0duhRw/XT8MkqOqve1qxXQCi+XDihOsUpq6VLIfjx12ncM0KQL2jcPCg6ximrnnf2OtuBQBkzIZvvnGdwtSZsD/0z/g/e92tABCv0U/g4MGzf84zaU7+HT7/XKTxeAiHXadxLfAFcJYwFd5803UMU9u0rb3OZawASqlEYufph+3ocFqKva7yEqxY4TpMsrACiCn7Cq/80t4gaekELFsmEvobbNvmOkyysEkUy9HowU/g6qsRb33sNN57IDPTdS5TZQuhuBiNLocOHcTLXQOFha5DJQsbAZQjXm4X2L4deNifEcikuHx45hnb8C/MRgAVKJtmOvJXWLIEaAH9+rnOZeKk8s+wYgWS/RHcdZeIiB3b+Uc2AqhA2RumeB8MHw68AWvXus5lKvUKrFmDnH4KBg+2Df/ibAQQJ/96AA0aIEXXwaxZoH+BYcNc5zJn9YNFi+Doh3DvvSKtxT85yFyMjQDi5J/ue+qUSGirPyKQ3/mTVcrTcOCA63zBIyNh/37gpL/B56yGQYNsw0+MjQCqSaOH+kCjRoh3EsaMAe0FI0cCQyAnx3W+tKFMhUOHEJ6FmTPRkqXwwgvi5fWPnZZtqsAKoIb5Bw/r1YNDQEEB6p2Evn2BTLjpJkRGQ5s2oDmQlQX8BurXd53boemxiVXC/jTgOh6+/RblKKxfj3h/h7fegqxbYe1af5++pMR16HTx/5jvzfetBQefAAAAJXRFWHRkYXRlOmNyZWF0ZQAyMDIyLTA3LTEzVDA5OjIxOjU2KzAwOjAw3Ze4wQAAACV0RVh0ZGF0ZTptb2RpZnkAMjAyMi0wNy0xM1QwOToyMTo1NiswMDowMKzKAH0AAAAodEVYdGRhdGU6dGltZXN0YW1wADIwMjItMDctMTNUMDk6MjE6NTYrMDA6MDD73yGiAAAAAElFTkSuQmCC;rotation=90;" vertex="1" parent="1">
          <mxGeometry x="853" y="763" width="88" height="88" as="geometry" />
        </mxCell>
        <mxCell id="uIabnYWw43FszIrwxXQ7-20" value="" style="shape=image;verticalLabelPosition=bottom;labelBackgroundColor=default;verticalAlign=top;aspect=fixed;imageAspect=0;image=data:image/png,iVBORw0KGgoAAAANSUhEUgAAAIAAAACAEAYAAACTrr2IAAAABGdBTUEAALGPC/xhBQAAACBjSFJNAAB6JgAAgIQAAPoAAACA6AAAdTAAAOpgAAA6mAAAF3CculE8AAAABmJLR0QAAAAAAAD5Q7t/AAAACXBIWXMAAABgAAAAYADwa0LPAAAAB3RJTUUH5gcNCRU4XOUz9wAADq5JREFUeNrt3XuQVOWZx/Hvc5gBvIAzPcwUBJTrSFwsLwECUk5FkYSAQnZLFwIit1JRWDFeACNKJaBoKKHQBRET5BYohIVVES+r7G4EBFFUAqjFYJAFCbfuAQrkMkw/+8fpYWDCMN1ze7v7PJ9/Ts3Q3fz6dJ9fv+dMn/cIplZoNLwKWrRA5E7o1w/0t9C9O/AoXH89yEPQpAnoVGjY0HVed2QYnDgBugjCYeBx+PJLoC+sXg36CixdKtJkJezd6zptuhHXAdKFRouehJYtEW0AEyeCtoGBA4HekJHhOl8KWwjFxSDvw6JFKI1hwgTxQq/D7t2uw6U6K4BqUj1UCKNGoV5f+MMfEF0Ll13mOlf6kmvg2DGUSfD44+KFRsDs2a5TpSorgASpqkK9elB0P8yZA/o8DBniOldgKX+HP/0JCXWAESNERCAadR0rVXiuA6QKf8MXQSPvwKxZtuEnCaEZ3HsvFPWGOXP818mz93WcbEXFLdINZs5E6Ar33ec6jSlP/wxDh0LRSnjpJddpUoXtAlRCo4f+C+65B5GOsGCB6zwmXiJw990ioRAsXuw6TbKyEUAFVMMNoXlzRIrhxRdd5zGJ0kKYOVOjkf5w5ZWu0yQrK4CKzYBXXwW6Qna26zAmYe0gKwvR4zBzpuswycp2AcrR6KH/gM6dEbkVNm50ncfUlGgUOnUSyc2FTZtcp0kWNgIoT7yxMG6c6ximpnkbYcwY1ymSjY0AYlQPj4fWraGkD+zYAeTbn5PSygYoKUG9ddC2rXjZk2HXLtehXLM3eCkt+R769ME2/HTVFerVQ0qGwR13uA6TLOyNXkq4GXr2dB3D1DZ5xF7nMoHfBdCoRqFBA6SoACIR0Lfg0ktd5zK1ROVmOH4csrdBdrZ44vknGwWTjQCkqB20a2cbfkCUnqwl4V9Bmzau47hmBQDToWVL1yFMHVNZCq1auY7hmhUALIJGjVyHMHVMpANccYXrGK5ZAagch8xM1zFMHVP5J6hf33UM16wAjAkwKwBjAswKwJgAswIwJsCsAIwJMCsAYwLM5qtPG9IXfvgB9D44cAC4NjZ99g1w7BhIFzh2DKE/HD+O6nA4ffofH0aehcxMlI/g8stBP/GXDPG/Ms1ACIVAJkNurn2DMrVZASSLs99R115QWIjIy7BjB8o6/2d9DwoLUe8N/3TlMw1h3z6k5CnYu1ek6Tr//qyr5H8qnQxjbJzJyr9HFp0XO3rgQ78gpBX86EdQrx3k5SHaGdq2RWUZtG+P8K9w9dWgS6F9e+A1yM8HJkGDBq5Xf1BZAdS++RAOo7SHjRsReQg+/RT4DDZuRHU9bN4sXuhr2LMH+Lrc/TtW8vhOz2wTL6+/P8IA2L79/OXatRfI3wlKT8LKzITwr+D66xGmQZcu4C2Gn/4UeMf/WRf6xUGOP9GnqUlWANVXD44eBRkBq1ejdIf334czWbB6tXh5j8YmGCkv5Dq4S+efhffZZ8DK2JJz5/BTPbgUmjUD70bo1QvkTn+pf4EePSid+8+YqtBo0R0waJBqOOxf/iPu5U545BH/k8yu/VfXSte7auQGeOyxhF+/2Ovu+nm4Zn8FqDLZBE2a+J9kZ864ThM0ZetdW0Jenus8qcoKoKqUEXDbba5jBJ5Kw9hl100VWAFUlegC6NRJtUhtH7TunV3vooPhxhtd50lVVgBV508yqQyFggLXYYInegnceiulr4OpEiuA6hL9xnYFXJCltt6rzwqg2nSmvRGduNv2/avPCqD6GkOHDqoHXoemTV2HSXeqB5/xvxegm+DHP3adJ9VZAVRf7BtqGTmxfVJTmzRjQ2zEZd8MrAFWADVGO9uuQB0Q/S7Bof/TcOqU69jJygqgYrGv+MbtP60A6oK+luB6HgFvvuk6dbKyAqiYwLJlCdy+D7RqVXaRUVOTNHrgdf8CLrSFq66K4y6rIBJBvfGwcqXr/MnKCqBCUhK7jvwfYfPmuO+m0VdsJFAbMg4ntl5lKyxaBNF5tgtQMSuAyvWH+fPjvrXoZCuA2qB3JrZevR0wd67r1MnOCqAyWrzd/yRhYXwXkZTN0L27qqodpa6+s+tR+C3cckscd9kJW7eKZK2AL75wnT/ZWQFUQrymPf0ptmQXrFpV+T10EuTloUURuPZa1/lTnh5eAtddBzzvT0FWqf0wZ47r2KnCCiBu0RYwb17cNxfdYLsCNUB0WJzr0R+haf1msRGbiYMVQLw05xF/BCD9YN++OO4xy76qWhN0RnwFIOvh7bfFa/QTOHjQdepUYQUQp7MTUKjOgMWL47jHu3DLLWVz35lEnDPT0l1w882V30Ea2kG/xFkBJErkdnjttcpvqAegUSMk8i50rGxiT1OeFA2ITQ5aAo0bX+SGI2H/fsiaC++95zp2qrECSJBI6G+wbRsqI8smsbyoaXYsoCr0prjWm2oBLFx4/iSjJl5WAFUl8r/xDTmlqxVAlayNc99/ACxY4DpsqrICqCrVr/yjzTIMTpy4yA2LoFs31d1T4ZJLXMdOdqp774tdaSgPunat+JZSABs3ihfKgS1bXOdOVTaddRX5b7wjR1TDs8tONvn1ry9w09iVby4bBC+/rBq+1t9nNRcm+PMqaGVXDFob+7NsoK+vUF1WANWlDIZ58xB+qKAASm/4Zxg61HXc5KeV/Ls8BidPgjcdlixxnTbV2S5AdUmoIXzwAXAUdu92HSf96U3wxhsiWVlQVOQ6TaqzAqgmERGIRv0LhSxc6DpP2lNa2N/7a44VQE3Rkhdj+6Rh0MrGsSZh0hy+/x4J9YbVq12nSRdWADVEvNw1UFgIrIF1lV2i2yRuIsyb54+4Skpch0kXVgA1r6kNUWtDyRj48EPXKdKNFUDNmwbr17sOkXY0Y7x/rMXUJCsAYwLMCsCYALMCMCbArACMCTArAGMCzArAmACzAjAmwKwAjAkwKwBjAswKwJgAswlBKqSzYMAA1fAqyM1FNRN27gSvo7/UDfDdd/7ZaXv3lp0WbOpC2aXXwn2hWTPw+kHr1qi8Dq1bI9EesZ+vg4ICUJs27AKsACr2gP/GASgoKLvM39kzfWPz1UUmwOnTqpFhsGsXqn+EcBjhiOsnkF70W5g6VaORNnD55RAZ5V+GXeb5U4fFXhfR3ufdTfQe18mTmRVA9f0G6tf334D5+f6Gn5/vOlTaEX0ZOnVyHSPd2DEAYwLMCsCYALNdgArJDnjiCSj5wJ/00/sfaNUKZJ2/ZLS/1K9iPz8Y+/e+sd/7lwYzNWU6nD4Nsgd27QLmxQ7GjvOX8i/+kgGwcycanRI7aDsDbrgB0eXw6quun0SysQKoWD4cPSqS2wU+/9z/VekSgCnlbv82gGr4NrjmGv9XX33l+kmkDfVK4Oc/Fy97Lnz00Tn/8ny5Zam7ADQaPhQraHMBtgtgTIBZARgTYFYAxgSYFYAxAWYFYEyAWQEYE2BWAMYEmBWAMQFmBWBMgFkBGBNgVgDGBJgVgDEBZgVgTIBZARgTYFYAxgSYFYAxAWYFYEyAWQEYE2BWAMYEmBWAMQFmBWBSg+jj0K2b6xjpxgqghmhUo5CRAZIPAwe6zpN+VOG55zQaXgXvvOMvW7RwnSrVWQFUk2qkDXTogBR1h48/Bn0WnnrKda60JXSFXr0Q2sPWraqRh+D++8suFmoSYQWQoNJPetXIJzBuHOgvYdMm0OXQubPrfAGSDVdcAfo7mD0bIvvh3Xc1GukPV17pOlyqsAuDxOnsJz1F3WHu3HM2+EmusxkAMqFnT0SfhS1bVCN5MHYsqkBRketwycoKoELa0/+kD7eAJ5/0P+knTAAm+ZejTvTh5Dt47jmk5CpYvtz1s0t+3hh49FFgaoLHVM4fGQgbYpcS6+r6GSUjK4AKyS6YPBn0a/969FV+nDvh008h+79hwgQR8eDMGdfPLtmpFimMGgV6CfzsZ6DfQ/PmVXiortCypevnk6zsGECFqrvh8zScOoXSG4YPF882/ESIZAscPgzshREjXOdJV1YAtUanwO9/L15oLGzd6jpNqhIJhWDVKpAnYP5813nSjRVATVNGwxdfoDmXwgsvuI6TNpTn4eGHgfqwZ4/rOOnCCqDmTI9dv/4lGDLEH/IXF7sOlS7EC+XAkSMgxfDAA67zpAsrgJrzMUyc6L9Rt2xxHSZdnbNLMAMWLHCdJ9VZAVSX8ix8+SUa+gCmTHEdJzCUf4PRo7FdgmqxAqi66bEh/3gYPNiG/HXr7C6Bep3gwQdd50lV9j2AqsuHY8eAX8C0aRqNdHQdKJg0tpTH4ORJ0KnQsKHrVKnCCkD4q3+mWcJuh1AI0duhRw/XT8MkqOqve1qxXQCi+XDihOsUpq6VLIfjx12ncM0KQL2jcPCg6ximrnnf2OtuBQBkzIZvvnGdwtSZsD/0z/g/e92tABCv0U/g4MGzf84zaU7+HT7/XKTxeAiHXadxLfAFcJYwFd5803UMU9u0rb3OZawASqlEYufph+3ocFqKva7yEqxY4TpMsrACiCn7Cq/80t4gaekELFsmEvobbNvmOkyysEkUy9HowU/g6qsRb33sNN57IDPTdS5TZQuhuBiNLocOHcTLXQOFha5DJQsbAZQjXm4X2L4deNifEcikuHx45hnb8C/MRgAVKJtmOvJXWLIEaAH9+rnOZeKk8s+wYgWS/RHcdZeIiB3b+Uc2AqhA2RumeB8MHw68AWvXus5lKvUKrFmDnH4KBg+2Df/ibAQQJ/96AA0aIEXXwaxZoH+BYcNc5zJn9YNFi+Doh3DvvSKtxT85yFyMjQDi5J/ue+qUSGirPyKQ3/mTVcrTcOCA63zBIyNh/37gpL/B56yGQYNsw0+MjQCqSaOH+kCjRoh3EsaMAe0FI0cCQyAnx3W+tKFMhUOHEJ6FmTPRkqXwwgvi5fWPnZZtqsAKoIb5Bw/r1YNDQEEB6p2Evn2BTLjpJkRGQ5s2oDmQlQX8BurXd53boemxiVXC/jTgOh6+/RblKKxfj3h/h7fegqxbYe1af5++pMR16HTx/5jvzfetBQefAAAAJXRFWHRkYXRlOmNyZWF0ZQAyMDIyLTA3LTEzVDA5OjIxOjU2KzAwOjAw3Ze4wQAAACV0RVh0ZGF0ZTptb2RpZnkAMjAyMi0wNy0xM1QwOToyMTo1NiswMDowMKzKAH0AAAAodEVYdGRhdGU6dGltZXN0YW1wADIwMjItMDctMTNUMDk6MjE6NTYrMDA6MDD73yGiAAAAAElFTkSuQmCC;rotation=90;" vertex="1" parent="1">
          <mxGeometry x="1323" y="763" width="88" height="88" as="geometry" />
        </mxCell>
        <mxCell id="uIabnYWw43FszIrwxXQ7-21" value="" style="shape=image;verticalLabelPosition=bottom;labelBackgroundColor=default;verticalAlign=top;aspect=fixed;imageAspect=0;image=data:image/png,iVBORw0KGgoAAAANSUhEUgAAAIAAAACAEAYAAACTrr2IAAAABGdBTUEAALGPC/xhBQAAACBjSFJNAAB6JgAAgIQAAPoAAACA6AAAdTAAAOpgAAA6mAAAF3CculE8AAAABmJLR0QAAAAAAAD5Q7t/AAAACXBIWXMAAABgAAAAYADwa0LPAAAAB3RJTUUH5gcNCRU4XOUz9wAADq5JREFUeNrt3XuQVOWZx/Hvc5gBvIAzPcwUBJTrSFwsLwECUk5FkYSAQnZLFwIit1JRWDFeACNKJaBoKKHQBRET5BYohIVVES+r7G4EBFFUAqjFYJAFCbfuAQrkMkw/+8fpYWDCMN1ze7v7PJ9/Ts3Q3fz6dJ9fv+dMn/cIplZoNLwKWrRA5E7o1w/0t9C9O/AoXH89yEPQpAnoVGjY0HVed2QYnDgBugjCYeBx+PJLoC+sXg36CixdKtJkJezd6zptuhHXAdKFRouehJYtEW0AEyeCtoGBA4HekJHhOl8KWwjFxSDvw6JFKI1hwgTxQq/D7t2uw6U6K4BqUj1UCKNGoV5f+MMfEF0Ll13mOlf6kmvg2DGUSfD44+KFRsDs2a5TpSorgASpqkK9elB0P8yZA/o8DBniOldgKX+HP/0JCXWAESNERCAadR0rVXiuA6QKf8MXQSPvwKxZtuEnCaEZ3HsvFPWGOXP818mz93WcbEXFLdINZs5E6Ar33ec6jSlP/wxDh0LRSnjpJddpUoXtAlRCo4f+C+65B5GOsGCB6zwmXiJw990ioRAsXuw6TbKyEUAFVMMNoXlzRIrhxRdd5zGJ0kKYOVOjkf5w5ZWu0yQrK4CKzYBXXwW6Qna26zAmYe0gKwvR4zBzpuswycp2AcrR6KH/gM6dEbkVNm50ncfUlGgUOnUSyc2FTZtcp0kWNgIoT7yxMG6c6ximpnkbYcwY1ymSjY0AYlQPj4fWraGkD+zYAeTbn5PSygYoKUG9ddC2rXjZk2HXLtehXLM3eCkt+R769ME2/HTVFerVQ0qGwR13uA6TLOyNXkq4GXr2dB3D1DZ5xF7nMoHfBdCoRqFBA6SoACIR0Lfg0ktd5zK1ROVmOH4csrdBdrZ44vknGwWTjQCkqB20a2cbfkCUnqwl4V9Bmzau47hmBQDToWVL1yFMHVNZCq1auY7hmhUALIJGjVyHMHVMpANccYXrGK5ZAagch8xM1zFMHVP5J6hf33UM16wAjAkwKwBjAswKwJgAswIwJsCsAIwJMCsAYwLM5qtPG9IXfvgB9D44cAC4NjZ99g1w7BhIFzh2DKE/HD+O6nA4ffofH0aehcxMlI/g8stBP/GXDPG/Ms1ACIVAJkNurn2DMrVZASSLs99R115QWIjIy7BjB8o6/2d9DwoLUe8N/3TlMw1h3z6k5CnYu1ek6Tr//qyr5H8qnQxjbJzJyr9HFp0XO3rgQ78gpBX86EdQrx3k5SHaGdq2RWUZtG+P8K9w9dWgS6F9e+A1yM8HJkGDBq5Xf1BZAdS++RAOo7SHjRsReQg+/RT4DDZuRHU9bN4sXuhr2LMH+Lrc/TtW8vhOz2wTL6+/P8IA2L79/OXatRfI3wlKT8LKzITwr+D66xGmQZcu4C2Gn/4UeMf/WRf6xUGOP9GnqUlWANVXD44eBRkBq1ejdIf334czWbB6tXh5j8YmGCkv5Dq4S+efhffZZ8DK2JJz5/BTPbgUmjUD70bo1QvkTn+pf4EePSid+8+YqtBo0R0waJBqOOxf/iPu5U545BH/k8yu/VfXSte7auQGeOyxhF+/2Ovu+nm4Zn8FqDLZBE2a+J9kZ864ThM0ZetdW0Jenus8qcoKoKqUEXDbba5jBJ5Kw9hl100VWAFUlegC6NRJtUhtH7TunV3vooPhxhtd50lVVgBV508yqQyFggLXYYInegnceiulr4OpEiuA6hL9xnYFXJCltt6rzwqg2nSmvRGduNv2/avPCqD6GkOHDqoHXoemTV2HSXeqB5/xvxegm+DHP3adJ9VZAVRf7BtqGTmxfVJTmzRjQ2zEZd8MrAFWADVGO9uuQB0Q/S7Bof/TcOqU69jJygqgYrGv+MbtP60A6oK+luB6HgFvvuk6dbKyAqiYwLJlCdy+D7RqVXaRUVOTNHrgdf8CLrSFq66K4y6rIBJBvfGwcqXr/MnKCqBCUhK7jvwfYfPmuO+m0VdsJFAbMg4ntl5lKyxaBNF5tgtQMSuAyvWH+fPjvrXoZCuA2qB3JrZevR0wd67r1MnOCqAyWrzd/yRhYXwXkZTN0L27qqodpa6+s+tR+C3cckscd9kJW7eKZK2AL75wnT/ZWQFUQrymPf0ptmQXrFpV+T10EuTloUURuPZa1/lTnh5eAtddBzzvT0FWqf0wZ47r2KnCCiBu0RYwb17cNxfdYLsCNUB0WJzr0R+haf1msRGbiYMVQLw05xF/BCD9YN++OO4xy76qWhN0RnwFIOvh7bfFa/QTOHjQdepUYQUQp7MTUKjOgMWL47jHu3DLLWVz35lEnDPT0l1w882V30Ea2kG/xFkBJErkdnjttcpvqAegUSMk8i50rGxiT1OeFA2ITQ5aAo0bX+SGI2H/fsiaC++95zp2qrECSJBI6G+wbRsqI8smsbyoaXYsoCr0prjWm2oBLFx4/iSjJl5WAFUl8r/xDTmlqxVAlayNc99/ACxY4DpsqrICqCrVr/yjzTIMTpy4yA2LoFs31d1T4ZJLXMdOdqp774tdaSgPunat+JZSABs3ihfKgS1bXOdOVTaddRX5b7wjR1TDs8tONvn1ry9w09iVby4bBC+/rBq+1t9nNRcm+PMqaGVXDFob+7NsoK+vUF1WANWlDIZ58xB+qKAASm/4Zxg61HXc5KeV/Ls8BidPgjcdlixxnTbV2S5AdUmoIXzwAXAUdu92HSf96U3wxhsiWVlQVOQ6TaqzAqgmERGIRv0LhSxc6DpP2lNa2N/7a44VQE3Rkhdj+6Rh0MrGsSZh0hy+/x4J9YbVq12nSRdWADVEvNw1UFgIrIF1lV2i2yRuIsyb54+4Skpch0kXVgA1r6kNUWtDyRj48EPXKdKNFUDNmwbr17sOkXY0Y7x/rMXUJCsAYwLMCsCYALMCMCbArACMCTArAGMCzArAmACzAjAmwKwAjAkwKwBjAswKwJgAswlBKqSzYMAA1fAqyM1FNRN27gSvo7/UDfDdd/7ZaXv3lp0WbOpC2aXXwn2hWTPw+kHr1qi8Dq1bI9EesZ+vg4ICUJs27AKsACr2gP/GASgoKLvM39kzfWPz1UUmwOnTqpFhsGsXqn+EcBjhiOsnkF70W5g6VaORNnD55RAZ5V+GXeb5U4fFXhfR3ufdTfQe18mTmRVA9f0G6tf334D5+f6Gn5/vOlTaEX0ZOnVyHSPd2DEAYwLMCsCYALNdgArJDnjiCSj5wJ/00/sfaNUKZJ2/ZLS/1K9iPz8Y+/e+sd/7lwYzNWU6nD4Nsgd27QLmxQ7GjvOX8i/+kgGwcycanRI7aDsDbrgB0eXw6quun0SysQKoWD4cPSqS2wU+/9z/VekSgCnlbv82gGr4NrjmGv9XX33l+kmkDfVK4Oc/Fy97Lnz00Tn/8ny5Zam7ADQaPhQraHMBtgtgTIBZARgTYFYAxgSYFYAxAWYFYEyAWQEYE2BWAMYEmBWAMQFmBWBMgFkBGBNgVgDGBJgVgDEBZgVgTIBZARgTYFYAxgSYFYAxAWYFYEyAWQEYE2BWAMYEmBWAMQFmBWBSg+jj0K2b6xjpxgqghmhUo5CRAZIPAwe6zpN+VOG55zQaXgXvvOMvW7RwnSrVWQFUk2qkDXTogBR1h48/Bn0WnnrKda60JXSFXr0Q2sPWraqRh+D++8suFmoSYQWQoNJPetXIJzBuHOgvYdMm0OXQubPrfAGSDVdcAfo7mD0bIvvh3Xc1GukPV17pOlyqsAuDxOnsJz1F3WHu3HM2+EmusxkAMqFnT0SfhS1bVCN5MHYsqkBRketwycoKoELa0/+kD7eAJ5/0P+knTAAm+ZejTvTh5Dt47jmk5CpYvtz1s0t+3hh49FFgaoLHVM4fGQgbYpcS6+r6GSUjK4AKyS6YPBn0a/969FV+nDvh008h+79hwgQR8eDMGdfPLtmpFimMGgV6CfzsZ6DfQ/PmVXiortCypevnk6zsGECFqrvh8zScOoXSG4YPF882/ESIZAscPgzshREjXOdJV1YAtUanwO9/L15oLGzd6jpNqhIJhWDVKpAnYP5813nSjRVATVNGwxdfoDmXwgsvuI6TNpTn4eGHgfqwZ4/rOOnCCqDmTI9dv/4lGDLEH/IXF7sOlS7EC+XAkSMgxfDAA67zpAsrgJrzMUyc6L9Rt2xxHSZdnbNLMAMWLHCdJ9VZAVSX8ix8+SUa+gCmTHEdJzCUf4PRo7FdgmqxAqi66bEh/3gYPNiG/HXr7C6Bep3gwQdd50lV9j2AqsuHY8eAX8C0aRqNdHQdKJg0tpTH4ORJ0KnQsKHrVKnCCkD4q3+mWcJuh1AI0duhRw/XT8MkqOqve1qxXQCi+XDihOsUpq6VLIfjx12ncM0KQL2jcPCg6ximrnnf2OtuBQBkzIZvvnGdwtSZsD/0z/g/e92tABCv0U/g4MGzf84zaU7+HT7/XKTxeAiHXadxLfAFcJYwFd5803UMU9u0rb3OZawASqlEYufph+3ocFqKva7yEqxY4TpMsrACiCn7Cq/80t4gaekELFsmEvobbNvmOkyysEkUy9HowU/g6qsRb33sNN57IDPTdS5TZQuhuBiNLocOHcTLXQOFha5DJQsbAZQjXm4X2L4deNifEcikuHx45hnb8C/MRgAVKJtmOvJXWLIEaAH9+rnOZeKk8s+wYgWS/RHcdZeIiB3b+Uc2AqhA2RumeB8MHw68AWvXus5lKvUKrFmDnH4KBg+2Df/ibAQQJ/96AA0aIEXXwaxZoH+BYcNc5zJn9YNFi+Doh3DvvSKtxT85yFyMjQDi5J/ue+qUSGirPyKQ3/mTVcrTcOCA63zBIyNh/37gpL/B56yGQYNsw0+MjQCqSaOH+kCjRoh3EsaMAe0FI0cCQyAnx3W+tKFMhUOHEJ6FmTPRkqXwwgvi5fWPnZZtqsAKoIb5Bw/r1YNDQEEB6p2Evn2BTLjpJkRGQ5s2oDmQlQX8BurXd53boemxiVXC/jTgOh6+/RblKKxfj3h/h7fegqxbYe1af5++pMR16HTx/5jvzfetBQefAAAAJXRFWHRkYXRlOmNyZWF0ZQAyMDIyLTA3LTEzVDA5OjIxOjU2KzAwOjAw3Ze4wQAAACV0RVh0ZGF0ZTptb2RpZnkAMjAyMi0wNy0xM1QwOToyMTo1NiswMDowMKzKAH0AAAAodEVYdGRhdGU6dGltZXN0YW1wADIwMjItMDctMTNUMDk6MjE6NTYrMDA6MDD73yGiAAAAAElFTkSuQmCC;rotation=-90;" vertex="1" parent="1">
          <mxGeometry x="853" y="863" width="88" height="88" as="geometry" />
        </mxCell>
        <mxCell id="uIabnYWw43FszIrwxXQ7-22" value="" style="shape=image;verticalLabelPosition=bottom;labelBackgroundColor=default;verticalAlign=top;aspect=fixed;imageAspect=0;image=data:image/png,iVBORw0KGgoAAAANSUhEUgAAAIAAAACAEAYAAACTrr2IAAAABGdBTUEAALGPC/xhBQAAACBjSFJNAAB6JgAAgIQAAPoAAACA6AAAdTAAAOpgAAA6mAAAF3CculE8AAAABmJLR0QAAAAAAAD5Q7t/AAAACXBIWXMAAABgAAAAYADwa0LPAAAAB3RJTUUH5gcNCRU4XOUz9wAADq5JREFUeNrt3XuQVOWZx/Hvc5gBvIAzPcwUBJTrSFwsLwECUk5FkYSAQnZLFwIit1JRWDFeACNKJaBoKKHQBRET5BYohIVVES+r7G4EBFFUAqjFYJAFCbfuAQrkMkw/+8fpYWDCMN1ze7v7PJ9/Ts3Q3fz6dJ9fv+dMn/cIplZoNLwKWrRA5E7o1w/0t9C9O/AoXH89yEPQpAnoVGjY0HVed2QYnDgBugjCYeBx+PJLoC+sXg36CixdKtJkJezd6zptuhHXAdKFRouehJYtEW0AEyeCtoGBA4HekJHhOl8KWwjFxSDvw6JFKI1hwgTxQq/D7t2uw6U6K4BqUj1UCKNGoV5f+MMfEF0Ll13mOlf6kmvg2DGUSfD44+KFRsDs2a5TpSorgASpqkK9elB0P8yZA/o8DBniOldgKX+HP/0JCXWAESNERCAadR0rVXiuA6QKf8MXQSPvwKxZtuEnCaEZ3HsvFPWGOXP818mz93WcbEXFLdINZs5E6Ar33ec6jSlP/wxDh0LRSnjpJddpUoXtAlRCo4f+C+65B5GOsGCB6zwmXiJw990ioRAsXuw6TbKyEUAFVMMNoXlzRIrhxRdd5zGJ0kKYOVOjkf5w5ZWu0yQrK4CKzYBXXwW6Qna26zAmYe0gKwvR4zBzpuswycp2AcrR6KH/gM6dEbkVNm50ncfUlGgUOnUSyc2FTZtcp0kWNgIoT7yxMG6c6ximpnkbYcwY1ymSjY0AYlQPj4fWraGkD+zYAeTbn5PSygYoKUG9ddC2rXjZk2HXLtehXLM3eCkt+R769ME2/HTVFerVQ0qGwR13uA6TLOyNXkq4GXr2dB3D1DZ5xF7nMoHfBdCoRqFBA6SoACIR0Lfg0ktd5zK1ROVmOH4csrdBdrZ44vknGwWTjQCkqB20a2cbfkCUnqwl4V9Bmzau47hmBQDToWVL1yFMHVNZCq1auY7hmhUALIJGjVyHMHVMpANccYXrGK5ZAagch8xM1zFMHVP5J6hf33UM16wAjAkwKwBjAswKwJgAswIwJsCsAIwJMCsAYwLM5qtPG9IXfvgB9D44cAC4NjZ99g1w7BhIFzh2DKE/HD+O6nA4ffofH0aehcxMlI/g8stBP/GXDPG/Ms1ACIVAJkNurn2DMrVZASSLs99R115QWIjIy7BjB8o6/2d9DwoLUe8N/3TlMw1h3z6k5CnYu1ek6Tr//qyr5H8qnQxjbJzJyr9HFp0XO3rgQ78gpBX86EdQrx3k5SHaGdq2RWUZtG+P8K9w9dWgS6F9e+A1yM8HJkGDBq5Xf1BZAdS++RAOo7SHjRsReQg+/RT4DDZuRHU9bN4sXuhr2LMH+Lrc/TtW8vhOz2wTL6+/P8IA2L79/OXatRfI3wlKT8LKzITwr+D66xGmQZcu4C2Gn/4UeMf/WRf6xUGOP9GnqUlWANVXD44eBRkBq1ejdIf334czWbB6tXh5j8YmGCkv5Dq4S+efhffZZ8DK2JJz5/BTPbgUmjUD70bo1QvkTn+pf4EePSid+8+YqtBo0R0waJBqOOxf/iPu5U545BH/k8yu/VfXSte7auQGeOyxhF+/2Ovu+nm4Zn8FqDLZBE2a+J9kZ864ThM0ZetdW0Jenus8qcoKoKqUEXDbba5jBJ5Kw9hl100VWAFUlegC6NRJtUhtH7TunV3vooPhxhtd50lVVgBV508yqQyFggLXYYInegnceiulr4OpEiuA6hL9xnYFXJCltt6rzwqg2nSmvRGduNv2/avPCqD6GkOHDqoHXoemTV2HSXeqB5/xvxegm+DHP3adJ9VZAVRf7BtqGTmxfVJTmzRjQ2zEZd8MrAFWADVGO9uuQB0Q/S7Bof/TcOqU69jJygqgYrGv+MbtP60A6oK+luB6HgFvvuk6dbKyAqiYwLJlCdy+D7RqVXaRUVOTNHrgdf8CLrSFq66K4y6rIBJBvfGwcqXr/MnKCqBCUhK7jvwfYfPmuO+m0VdsJFAbMg4ntl5lKyxaBNF5tgtQMSuAyvWH+fPjvrXoZCuA2qB3JrZevR0wd67r1MnOCqAyWrzd/yRhYXwXkZTN0L27qqodpa6+s+tR+C3cckscd9kJW7eKZK2AL75wnT/ZWQFUQrymPf0ptmQXrFpV+T10EuTloUURuPZa1/lTnh5eAtddBzzvT0FWqf0wZ47r2KnCCiBu0RYwb17cNxfdYLsCNUB0WJzr0R+haf1msRGbiYMVQLw05xF/BCD9YN++OO4xy76qWhN0RnwFIOvh7bfFa/QTOHjQdepUYQUQp7MTUKjOgMWL47jHu3DLLWVz35lEnDPT0l1w882V30Ea2kG/xFkBJErkdnjttcpvqAegUSMk8i50rGxiT1OeFA2ITQ5aAo0bX+SGI2H/fsiaC++95zp2qrECSJBI6G+wbRsqI8smsbyoaXYsoCr0prjWm2oBLFx4/iSjJl5WAFUl8r/xDTmlqxVAlayNc99/ACxY4DpsqrICqCrVr/yjzTIMTpy4yA2LoFs31d1T4ZJLXMdOdqp774tdaSgPunat+JZSABs3ihfKgS1bXOdOVTaddRX5b7wjR1TDs8tONvn1ry9w09iVby4bBC+/rBq+1t9nNRcm+PMqaGVXDFob+7NsoK+vUF1WANWlDIZ58xB+qKAASm/4Zxg61HXc5KeV/Ls8BidPgjcdlixxnTbV2S5AdUmoIXzwAXAUdu92HSf96U3wxhsiWVlQVOQ6TaqzAqgmERGIRv0LhSxc6DpP2lNa2N/7a44VQE3Rkhdj+6Rh0MrGsSZh0hy+/x4J9YbVq12nSRdWADVEvNw1UFgIrIF1lV2i2yRuIsyb54+4Skpch0kXVgA1r6kNUWtDyRj48EPXKdKNFUDNmwbr17sOkXY0Y7x/rMXUJCsAYwLMCsCYALMCMCbArACMCTArAGMCzArAmACzAjAmwKwAjAkwKwBjAswKwJgAswlBKqSzYMAA1fAqyM1FNRN27gSvo7/UDfDdd/7ZaXv3lp0WbOpC2aXXwn2hWTPw+kHr1qi8Dq1bI9EesZ+vg4ICUJs27AKsACr2gP/GASgoKLvM39kzfWPz1UUmwOnTqpFhsGsXqn+EcBjhiOsnkF70W5g6VaORNnD55RAZ5V+GXeb5U4fFXhfR3ufdTfQe18mTmRVA9f0G6tf334D5+f6Gn5/vOlTaEX0ZOnVyHSPd2DEAYwLMCsCYALNdgArJDnjiCSj5wJ/00/sfaNUKZJ2/ZLS/1K9iPz8Y+/e+sd/7lwYzNWU6nD4Nsgd27QLmxQ7GjvOX8i/+kgGwcycanRI7aDsDbrgB0eXw6quun0SysQKoWD4cPSqS2wU+/9z/VekSgCnlbv82gGr4NrjmGv9XX33l+kmkDfVK4Oc/Fy97Lnz00Tn/8ny5Zam7ADQaPhQraHMBtgtgTIBZARgTYFYAxgSYFYAxAWYFYEyAWQEYE2BWAMYEmBWAMQFmBWBMgFkBGBNgVgDGBJgVgDEBZgVgTIBZARgTYFYAxgSYFYAxAWYFYEyAWQEYE2BWAMYEmBWAMQFmBWBSg+jj0K2b6xjpxgqghmhUo5CRAZIPAwe6zpN+VOG55zQaXgXvvOMvW7RwnSrVWQFUk2qkDXTogBR1h48/Bn0WnnrKda60JXSFXr0Q2sPWraqRh+D++8suFmoSYQWQoNJPetXIJzBuHOgvYdMm0OXQubPrfAGSDVdcAfo7mD0bIvvh3Xc1GukPV17pOlyqsAuDxOnsJz1F3WHu3HM2+EmusxkAMqFnT0SfhS1bVCN5MHYsqkBRketwycoKoELa0/+kD7eAJ5/0P+knTAAm+ZejTvTh5Dt47jmk5CpYvtz1s0t+3hh49FFgaoLHVM4fGQgbYpcS6+r6GSUjK4AKyS6YPBn0a/969FV+nDvh008h+79hwgQR8eDMGdfPLtmpFimMGgV6CfzsZ6DfQ/PmVXiortCypevnk6zsGECFqrvh8zScOoXSG4YPF882/ESIZAscPgzshREjXOdJV1YAtUanwO9/L15oLGzd6jpNqhIJhWDVKpAnYP5813nSjRVATVNGwxdfoDmXwgsvuI6TNpTn4eGHgfqwZ4/rOOnCCqDmTI9dv/4lGDLEH/IXF7sOlS7EC+XAkSMgxfDAA67zpAsrgJrzMUyc6L9Rt2xxHSZdnbNLMAMWLHCdJ9VZAVSX8ix8+SUa+gCmTHEdJzCUf4PRo7FdgmqxAqi66bEh/3gYPNiG/HXr7C6Bep3gwQdd50lV9j2AqsuHY8eAX8C0aRqNdHQdKJg0tpTH4ORJ0KnQsKHrVKnCCkD4q3+mWcJuh1AI0duhRw/XT8MkqOqve1qxXQCi+XDihOsUpq6VLIfjx12ncM0KQL2jcPCg6ximrnnf2OtuBQBkzIZvvnGdwtSZsD/0z/g/e92tABCv0U/g4MGzf84zaU7+HT7/XKTxeAiHXadxLfAFcJYwFd5803UMU9u0rb3OZawASqlEYufph+3ocFqKva7yEqxY4TpMsrACiCn7Cq/80t4gaekELFsmEvobbNvmOkyysEkUy9HowU/g6qsRb33sNN57IDPTdS5TZQuhuBiNLocOHcTLXQOFha5DJQsbAZQjXm4X2L4deNifEcikuHx45hnb8C/MRgAVKJtmOvJXWLIEaAH9+rnOZeKk8s+wYgWS/RHcdZeIiB3b+Uc2AqhA2RumeB8MHw68AWvXus5lKvUKrFmDnH4KBg+2Df/ibAQQJ/96AA0aIEXXwaxZoH+BYcNc5zJn9YNFi+Doh3DvvSKtxT85yFyMjQDi5J/ue+qUSGirPyKQ3/mTVcrTcOCA63zBIyNh/37gpL/B56yGQYNsw0+MjQCqSaOH+kCjRoh3EsaMAe0FI0cCQyAnx3W+tKFMhUOHEJ6FmTPRkqXwwgvi5fWPnZZtqsAKoIb5Bw/r1YNDQEEB6p2Evn2BTLjpJkRGQ5s2oDmQlQX8BurXd53boemxiVXC/jTgOh6+/RblKKxfj3h/h7fegqxbYe1af5++pMR16HTx/5jvzfetBQefAAAAJXRFWHRkYXRlOmNyZWF0ZQAyMDIyLTA3LTEzVDA5OjIxOjU2KzAwOjAw3Ze4wQAAACV0RVh0ZGF0ZTptb2RpZnkAMjAyMi0wNy0xM1QwOToyMTo1NiswMDowMKzKAH0AAAAodEVYdGRhdGU6dGltZXN0YW1wADIwMjItMDctMTNUMDk6MjE6NTYrMDA6MDD73yGiAAAAAElFTkSuQmCC;rotation=90;" vertex="1" parent="1">
          <mxGeometry x="853" y="961" width="88" height="88" as="geometry" />
        </mxCell>
        <mxCell id="uIabnYWw43FszIrwxXQ7-27" style="edgeStyle=orthogonalEdgeStyle;curved=0;rounded=1;sketch=0;orthogonalLoop=1;jettySize=auto;html=1;fontSize=26;fontColor=#FFFF00;strokeColor=#BC6C25;strokeWidth=7;fillColor=#BC6C25;entryX=0;entryY=0.5;entryDx=0;entryDy=0;" edge="1" parent="1" source="uIabnYWw43FszIrwxXQ7-7" target="uIabnYWw43FszIrwxXQ7-30">
          <mxGeometry relative="1" as="geometry">
            <mxPoint x="1593" y="606.9999999999998" as="targetPoint" />
          </mxGeometry>
        </mxCell>
        <mxCell id="uIabnYWw43FszIrwxXQ7-30" value="&lt;b&gt;&lt;font style=&quot;font-size: 31px;&quot;&gt;Final&lt;br&gt;Line&lt;br&gt;&lt;/font&gt;&lt;/b&gt;" style="rounded=0;whiteSpace=wrap;html=1;sketch=0;fillStyle=cross-hatch;fontSize=26;fontColor=#FFFF00;strokeColor=#DDA15E;fillColor=#009900;" vertex="1" parent="1">
          <mxGeometry x="1603" y="367" width="230" height="480" as="geometry" />
        </mxCell>
        <mxCell id="uIabnYWw43FszIrwxXQ7-39" style="edgeStyle=orthogonalEdgeStyle;curved=0;rounded=1;sketch=0;orthogonalLoop=1;jettySize=auto;html=1;entryX=1;entryY=0.5;entryDx=0;entryDy=0;dashed=1;fontSize=31;fontColor=#FFFF00;strokeColor=#FFFF00;strokeWidth=7;fillColor=#BC6C25;" edge="1" parent="1" source="uIabnYWw43FszIrwxXQ7-31" target="uIabnYWw43FszIrwxXQ7-37">
          <mxGeometry relative="1" as="geometry" />
        </mxCell>
        <mxCell id="uIabnYWw43FszIrwxXQ7-31" value="&lt;b&gt;&lt;font color=&quot;#ffffff&quot;&gt;Engine&amp;nbsp;&lt;br&gt;SUB&lt;/font&gt;&lt;/b&gt;" style="ellipse;whiteSpace=wrap;html=1;rounded=0;sketch=0;fillStyle=cross-hatch;fontSize=31;fontColor=#FFFF00;strokeColor=#DDA15E;fillColor=#3333FF;" vertex="1" parent="1">
          <mxGeometry x="1411" y="1157" width="220" height="130" as="geometry" />
        </mxCell>
        <mxCell id="uIabnYWw43FszIrwxXQ7-36" style="edgeStyle=orthogonalEdgeStyle;curved=0;rounded=1;sketch=0;orthogonalLoop=1;jettySize=auto;html=1;entryX=1;entryY=0.5;entryDx=0;entryDy=0;fontSize=31;fontColor=#FFFF00;strokeColor=#FFFF00;strokeWidth=7;fillColor=#BC6C25;exitX=0.5;exitY=0;exitDx=0;exitDy=0;dashed=1;" edge="1" parent="1" source="uIabnYWw43FszIrwxXQ7-33" target="uIabnYWw43FszIrwxXQ7-34">
          <mxGeometry relative="1" as="geometry">
            <Array as="points">
              <mxPoint x="1833" y="949" />
              <mxPoint x="1289" y="949" />
            </Array>
          </mxGeometry>
        </mxCell>
        <mxCell id="uIabnYWw43FszIrwxXQ7-33" value="&lt;b&gt;&lt;font color=&quot;#ffffff&quot;&gt;CPM&lt;/font&gt;&lt;/b&gt;" style="ellipse;whiteSpace=wrap;html=1;rounded=0;sketch=0;fillStyle=cross-hatch;fontSize=31;fontColor=#FFFF00;strokeColor=#DDA15E;fillColor=#3333FF;" vertex="1" parent="1">
          <mxGeometry x="1723" y="1157" width="220" height="130" as="geometry" />
        </mxCell>
        <mxCell id="uIabnYWw43FszIrwxXQ7-34" value="" style="ellipse;whiteSpace=wrap;html=1;aspect=fixed;rounded=0;sketch=0;fillStyle=cross-hatch;fontSize=31;fontColor=#FFFF00;strokeColor=#DDA15E;fillColor=#009900;" vertex="1" parent="1">
          <mxGeometry x="1283" y="945" width="6" height="6" as="geometry" />
        </mxCell>
        <mxCell id="uIabnYWw43FszIrwxXQ7-40" style="edgeStyle=orthogonalEdgeStyle;curved=0;rounded=1;sketch=0;orthogonalLoop=1;jettySize=auto;html=1;entryX=0.5;entryY=1;entryDx=0;entryDy=0;dashed=1;fontSize=31;fontColor=#FFFF00;strokeColor=#FFFF00;strokeWidth=7;fillColor=#BC6C25;exitX=0;exitY=0.5;exitDx=0;exitDy=0;" edge="1" parent="1" source="uIabnYWw43FszIrwxXQ7-37" target="uIabnYWw43FszIrwxXQ7-5">
          <mxGeometry relative="1" as="geometry" />
        </mxCell>
        <mxCell id="uIabnYWw43FszIrwxXQ7-37" value="&lt;b&gt;&lt;font color=&quot;#ffffff&quot;&gt;CUBS&lt;/font&gt;&lt;/b&gt;" style="rounded=1;whiteSpace=wrap;html=1;sketch=0;fillStyle=cross-hatch;fontSize=31;fontColor=#FFFF00;strokeColor=#DDA15E;fillColor=#3333FF;" vertex="1" parent="1">
          <mxGeometry x="873" y="1179.81" width="370" height="84.38" as="geometry" />
        </mxCell>
        <mxCell id="uIabnYWw43FszIrwxXQ7-51" value="" style="shape=flexArrow;endArrow=classic;html=1;rounded=1;labelBackgroundColor=none;sketch=0;fontSize=31;fontColor=#FFFF00;strokeColor=#BC6C25;strokeWidth=0;fillColor=#BC6C25;curved=0;endWidth=22.57088846880907;endSize=17.513043478260872;width=48.69565217391305;" edge="1" parent="1">
          <mxGeometry width="50" height="50" relative="1" as="geometry">
            <mxPoint x="643" y="805.89" as="sourcePoint" />
            <mxPoint x="823" y="806.2099999999999" as="targetPoint" />
          </mxGeometry>
        </mxCell>
        <mxCell id="uIabnYWw43FszIrwxXQ7-52" value="&lt;font style=&quot;line-height: 0;&quot;&gt;&lt;b&gt;PBS&lt;/b&gt;&lt;/font&gt;" style="edgeLabel;html=1;align=center;verticalAlign=middle;resizable=0;points=[];fontSize=31;fontColor=#FFFF00;labelBorderColor=none;labelBackgroundColor=none;" vertex="1" connectable="0" parent="uIabnYWw43FszIrwxXQ7-51">
          <mxGeometry x="-0.0004" y="-15" relative="1" as="geometry">
            <mxPoint x="-25" y="-15" as="offset" />
          </mxGeometry>
        </mxCell>
        <mxCell id="uIabnYWw43FszIrwxXQ7-56" style="edgeStyle=orthogonalEdgeStyle;curved=0;rounded=1;sketch=0;orthogonalLoop=1;jettySize=auto;html=1;entryX=0.25;entryY=0;entryDx=0;entryDy=0;dashed=1;labelBackgroundColor=none;fontSize=31;fontColor=#FFFF00;strokeColor=#FFFF00;strokeWidth=6;fillColor=#BC6C25;" edge="1" parent="1" source="uIabnYWw43FszIrwxXQ7-53" target="uIabnYWw43FszIrwxXQ7-1">
          <mxGeometry relative="1" as="geometry" />
        </mxCell>
        <mxCell id="uIabnYWw43FszIrwxXQ7-53" value="&lt;b&gt;&lt;font color=&quot;#ffffff&quot;&gt;Door SUB&lt;/font&gt;&lt;/b&gt;" style="rounded=1;whiteSpace=wrap;html=1;sketch=0;fillStyle=cross-hatch;fontSize=31;fontColor=#FFFF00;strokeColor=#DDA15E;fillColor=#3333FF;" vertex="1" parent="1">
          <mxGeometry x="590" y="420" width="197" height="84.38" as="geometry" />
        </mxCell>
      </root>
    </mxGraphModel>
  </diagram>
</mxfile>
